<svg width="28" height="28" viewBox="0 0 28 28" fill="none" xmlns="http://www.w3.org/2000/svg">
<path d="M13.9998 0.666626C6.6665 0.666626 0.666504 6.66663 0.666504 14C0.666504 21.3333 6.6665 27.3333 13.9998 27.3333C21.3332 27.3333 27.3332 21.3333 27.3332 14C27.3332 6.66663 21.3332 0.666626 13.9998 0.666626ZM13.9998 3.99996C16.1665 3.99996 18.1665 4.66663 19.8332 5.83329L5.83317 19.8333C4.6665 18.1666 3.99984 16.1666 3.99984 14C3.99984 8.49996 8.49984 3.99996 13.9998 3.99996ZM13.9998 24C11.8332 24 9.83317 23.3333 8.1665 22.1666L22.1665 8.16663C23.3332 9.83329 23.9998 11.8333 23.9998 14C23.9998 19.5 19.4998 24 13.9998 24Z" fill="#002859"/>
</svg>
