<svg width="28" height="16" viewBox="0 0 28 16" fill="none" xmlns="http://www.w3.org/2000/svg">
<path d="M14.8133 5.5C14.2983 4.03804 13.3422 2.77194 12.0771 1.87637C10.8119 0.980796 9.30004 0.499892 7.75 0.5C5.76142 0.501765 3.85479 1.29251 2.44865 2.69865C1.04251 4.10479 0.251765 6.01142 0.25 8C0.25 12.1367 3.61333 15.5 7.75 15.5C9.30004 15.5001 10.8119 15.0192 12.0771 14.1236C13.3422 13.2281 14.2983 11.962 14.8133 10.5H20.25V15.5H25.25V10.5H27.75V5.5H14.8133ZM7.75 10.5C6.375 10.5 5.25 9.375 5.25 8C5.25 6.625 6.375 5.5 7.75 5.5C9.125 5.5 10.25 6.625 10.25 8C10.25 9.375 9.125 10.5 7.75 10.5Z" fill="#002859"/>
</svg>
