<svg width="25" height="20" viewBox="0 0 25 20" fill="none" xmlns="http://www.w3.org/2000/svg">
<path d="M21.9611 0.332031H2.9C1.24306 0.332031 0 1.58203 0 3.2487V16.9987C0 18.5265 1.24306 19.7765 2.9 19.7765H22.1C23.6194 19.7765 25 18.5265 25 16.8598V3.2487C24.8611 1.58203 23.6194 0.332031 21.9611 0.332031ZM12.4306 10.8876L4.69583 3.10981H20.1667L12.4319 10.8876H12.4306ZM7.73611 10.1931L2.7625 15.1931V5.05425L7.73472 10.1931H7.73611ZM9.80556 12.1376L10.9111 13.2487C11.3264 13.6654 11.8778 13.9431 12.5694 13.9431C13.1222 13.9431 13.6736 13.6654 14.2264 13.2487L15.3319 12.1376L20.1653 16.9987H4.97222L9.80556 12.1376ZM17.1264 10.0543L22.0986 5.05425V15.0543L17.1264 10.0543Z" fill="#002859"/>
</svg>
