<svg width="26" height="26" viewBox="0 0 26 26" fill="none" xmlns="http://www.w3.org/2000/svg">
<path d="M13 0.5C6.1 0.5 0.5 6.1 0.5 13C0.5 19.9 6.1 25.5 13 25.5C19.9 25.5 25.5 19.9 25.5 13C25.5 6.1 19.9 0.5 13 0.5ZM13 4.25C13.4926 4.24934 13.9806 4.34589 14.4358 4.53411C14.8911 4.72233 15.3048 4.99853 15.6531 5.34688C16.0015 5.69523 16.2777 6.10889 16.4659 6.56416C16.6541 7.01943 16.7507 7.50736 16.75 8C16.7507 8.49264 16.6541 8.98057 16.4659 9.43584C16.2777 9.89111 16.0015 10.3048 15.6531 10.6531C15.3048 11.0015 14.8911 11.2777 14.4358 11.4659C13.9806 11.6541 13.4926 11.7507 13 11.75C12.5074 11.7507 12.0194 11.6541 11.5642 11.4659C11.1089 11.2777 10.6952 11.0015 10.3469 10.6531C9.99853 10.3048 9.72233 9.89111 9.53411 9.43584C9.34589 8.98057 9.24934 8.49264 9.25 8C9.24934 7.50736 9.34589 7.01943 9.53411 6.56416C9.72233 6.10889 9.99853 5.69523 10.3469 5.34688C10.6952 4.99853 11.1089 4.72233 11.5642 4.53411C12.0194 4.34589 12.5074 4.24934 13 4.25ZM13 22C11.5148 22 10.0527 21.6325 8.7441 20.9302C7.43547 20.2279 6.32097 19.2126 5.5 17.975C5.53667 15.4867 10.5 14.125 13 14.125C15.4867 14.125 20.4617 15.4867 20.5 17.975C19.679 19.2126 18.5645 20.2279 17.2559 20.9302C15.9473 21.6325 14.4852 22 13 22Z" fill="#002859"/>
</svg>
