<svg width="76" height="50" viewBox="0 0 76 50" fill="none" xmlns="http://www.w3.org/2000/svg">
<path d="M45.4775 11.765L45.5 11.75L56.75 26.2138C35.75 26.2138 34.25 34.25 24.875 34.25C18.5 34.25 15.5 30.2338 15.5 30.2338L38.5175 16.0513C37.6175 14.9863 36.7775 14.0038 35.9938 13.0888C34.8613 11.7013 32.5738 11.3075 30.7288 12.245L17.3038 19.6175L13.6963 13.0438L27.2225 5.615C32.2175 3.0725 38.8963 3.87875 42.2825 8.015C43.3521 9.2611 44.4171 10.5111 45.4775 11.765ZM62.375 19.25C59.8886 19.25 57.504 18.2623 55.7459 16.5041C53.9877 14.746 53 12.3614 53 9.875C53 7.3886 53.9877 5.00403 55.7459 3.24587C57.504 1.48772 59.8886 0.5 62.375 0.5C64.8614 0.5 67.246 1.48772 69.0041 3.24587C70.7623 5.00403 71.75 7.3886 71.75 9.875C71.75 12.3614 70.7623 14.746 69.0041 16.5041C67.246 18.2623 64.8614 19.25 62.375 19.25ZM75.5 39.5V47.75C71.375 45.875 61.625 41.75 54.875 41.75C49.625 41.75 45.5 43.25 41 45.125C36.125 47.375 31.25 49.25 24.875 49.25C17 49.25 6.875 45.875 0.5 43.25V35.375C5.375 37.25 17.375 41.75 24.875 41.75C29.75 41.75 33.875 40.25 38.375 38.375C43.25 36.125 48.5 34.25 54.875 34.25C61.625 34.25 70.25 37.25 75.5 39.5Z" fill="#002859"/>
<path d="M45.0957 12.0879L45.3837 12.4284L45.3907 12.4238L55.7326 25.7201C45.8027 25.8457 40.3353 27.8074 36.2362 29.7814C35.3784 30.1945 34.5891 30.6024 33.8383 30.9904C30.8671 32.5259 28.4985 33.75 24.875 33.75C21.7986 33.75 19.548 32.7824 18.0691 31.8225C17.3283 31.3417 16.7803 30.8621 16.4199 30.5057C16.3639 30.4504 16.3125 30.3981 16.2657 30.3493L38.7798 16.4769L39.2743 16.1722L38.8994 15.7285C37.9997 14.6639 37.1601 13.6818 36.3772 12.7679C35.0709 11.1727 32.5191 10.7744 30.5023 11.7992L30.4951 11.8029L30.4881 11.8067L17.5015 18.9385L14.3751 13.2414L27.4563 6.05707C32.2889 3.60111 38.6913 4.41775 41.8956 8.33173L41.8955 8.33182L41.9031 8.34066C42.9719 9.58583 44.0361 10.8349 45.0957 12.0879ZM1 42.9145V36.1021C3.5027 37.0578 7.39279 38.4988 11.5599 39.7447C16.1136 41.1061 21.0476 42.25 24.875 42.25C29.8563 42.25 34.06 40.7146 38.5673 38.8365L38.576 38.8329L38.5845 38.829C43.4306 36.5923 48.6041 34.75 54.875 34.75C61.3902 34.75 69.7372 37.6016 75 39.8305V46.9765C72.8916 46.0359 69.7441 44.7106 66.33 43.5725C62.5205 42.3027 58.3331 41.25 54.875 41.25C49.5211 41.25 45.3195 42.7835 40.8077 44.6635L40.799 44.6671L40.7905 44.671C35.9373 46.911 31.1413 48.75 24.875 48.75C17.2293 48.75 7.37896 45.5156 1 42.9145ZM62.375 18.75C60.0212 18.75 57.7638 17.815 56.0994 16.1506C54.4351 14.4862 53.5 12.2288 53.5 9.875C53.5 7.5212 54.4351 5.26381 56.0994 3.59943C57.7638 1.93504 60.0212 1 62.375 1C64.7288 1 66.9862 1.93504 68.6506 3.59943C70.315 5.26381 71.25 7.5212 71.25 9.875C71.25 12.2288 70.315 14.4862 68.6506 16.1506C66.9862 17.815 64.7288 18.75 62.375 18.75Z" stroke="#002859" stroke-opacity="0.1"/>
</svg>
