<svg width="64" height="64" viewBox="0 0 64 64" fill="none" xmlns="http://www.w3.org/2000/svg"><path fill-rule="evenodd" clip-rule="evenodd" d="M22.3575 15C20.3684 15 18.4607 14.2098 17.0542 12.8033C15.6477 11.3968 14.8575 9.48912 14.8575 7.5C14.8575 5.51088 15.6477 3.60322 17.0542 2.1967C18.4607 0.790176 20.3684 0 22.3575 0C24.3466 0 26.2543 0.790176 27.6608 2.1967C29.0673 3.60322 29.8575 5.51088 29.8575 7.5C29.8575 9.48912 29.0673 11.3968 27.6608 12.8033C26.2543 14.2098 24.3466 15 22.3575 15ZM46.095 52.0988L63.165 52.7738L62.865 60.2738L45.7987 59.595C44.1503 59.5295 42.5695 58.9222 41.3011 57.8674C40.0327 56.8125 39.1474 55.3689 38.7825 53.76L36.3712 43.1325C36.2437 43.1663 32.1712 44.9138 24.1462 48.3825L9.1575 63.5325L3.825 58.2563L18.8175 43.1063C19.4815 42.434 20.2665 41.8933 21.1312 41.5125L27.5175 38.7075L23.1825 27.9638C18.5662 35.325 13.1475 37.1625 0 33.375L2.0775 26.1675C12.1162 29.0588 14.055 28.4025 16.815 24.0038L17.5687 22.8113C19.9087 19.1588 22.5187 17.4037 26.3137 15.7125C35.1112 11.79 40.485 13.2187 45.825 15.7125C52.8 18.975 55.1625 26.01 51.675 34.92L44.6887 32.1825C46.7962 26.7975 45.8625 24.0075 42.6487 22.5075C41.0587 21.765 38.9737 21.3863 36.6975 21.3713L41.9475 31.9613C42.4123 32.8981 42.7443 33.8952 42.9337 34.9238L46.095 52.1025V52.0988Z" fill="#CD1531"/></svg>
