<svg width="52" height="76" viewBox="0 0 52 76" fill="none" xmlns="http://www.w3.org/2000/svg"><path d="M18.4469 42.3246L25.4631 24.7783L18.9644 24.5008L18.5106 24.4521C15.3044 23.9196 12.0494 22.3558 9.72439 20.0308L3.50689 13.8133C3.11689 13.4946 2.75689 13.1383 2.44189 12.7483L2.22439 12.5308L2.25064 12.5008C1.38855 11.3517 0.874612 9.97921 0.769939 8.54648C0.665267 7.11376 0.974262 5.68111 1.66018 4.41891C2.3461 3.1567 3.38009 2.11803 4.63919 1.42642C5.89829 0.734807 7.32952 0.419346 8.7627 0.517548C10.1959 0.61575 11.5707 1.12348 12.7237 1.98037C13.8767 2.83726 14.7594 4.00726 15.2667 5.35123C15.774 6.6952 15.8847 8.1566 15.5856 9.56166C15.2865 10.9667 14.5902 12.2563 13.5794 13.2771L15.0269 14.7246C16.1481 15.8421 17.8769 16.6933 19.5381 17.0121L27.7506 17.3758C29.2319 17.3758 30.9869 17.7508 32.9631 18.4221L42.7281 22.5546C49.7744 25.5733 53.3331 33.6209 50.7606 40.8171L48.5106 46.8171L41.4906 44.1846L43.7181 38.2409C44.1034 37.1156 44.196 35.9108 43.9874 34.7398C43.7788 33.5688 43.2758 32.4701 42.5256 31.5471L38.3931 42.1484L25.6244 75.3471L18.6269 72.6546L28.6769 46.5321L25.3619 45.2346L19.9131 57.1821L13.0881 54.0696L18.4469 42.3246ZM42.0006 15.5008C40.0115 15.5008 38.1039 14.7107 36.6973 13.3041C35.2908 11.8976 34.5006 9.98997 34.5006 8.00085C34.5006 6.01172 35.2908 4.10407 36.6973 2.69754C38.1039 1.29102 40.0115 0.500845 42.0006 0.500845C43.9898 0.500845 45.8974 1.29102 47.3039 2.69754C48.7105 4.10407 49.5006 6.01172 49.5006 8.00085C49.5006 9.98997 48.7105 11.8976 47.3039 13.3041C45.8974 14.7107 43.9898 15.5008 42.0006 15.5008Z" fill="#002859"/></svg>
