<svg width="66" height="76" viewBox="0 0 66 76" fill="none" xmlns="http://www.w3.org/2000/svg"><path d="M17.6625 42.5112L17.625 42.5L24.375 26L24.42 25.8462C21.2766 27.7527 18.7886 30.5716 17.2875 33.9275L15.4125 38.0525L8.5875 34.9475L10.4625 30.8225C12.5814 26.0987 16.0864 22.1307 20.5125 19.445C24.42 17.0037 28.7775 16.1562 33.4837 17.1012L39.5287 18.5375C41.0437 18.755 42.4837 19.16 44.0962 19.7825C44.6962 20.0113 45.3 20.2625 46.0837 20.6038C46.1662 20.6413 47.565 21.2525 48.2925 21.5787L65.5425 30.9538L61.9575 37.5462L45.0225 28.3212L43.3237 27.5825L37.455 42.6725L26.01 73.07L18.99 70.43L28.4025 45.4175L24.99 44.495L20.295 54.92L13.455 51.8338L17.6625 42.5112ZM7.5 75.5C5.51087 75.5 3.60322 74.7098 2.1967 73.3033C0.790176 71.8968 0 69.9891 0 68C0 66.0109 0.790176 64.1032 2.1967 62.6967C3.60322 61.2902 5.51087 60.5 7.5 60.5C9.48912 60.5 11.3968 61.2902 12.8033 62.6967C14.2098 64.1032 15 66.0109 15 68C15 69.9891 14.2098 71.8968 12.8033 73.3033C11.3968 74.7098 9.48912 75.5 7.5 75.5ZM37.5 15.5C35.5109 15.5 33.6032 14.7098 32.1967 13.3033C30.7902 11.8968 30 9.98912 30 8C30 6.01088 30.7902 4.10322 32.1967 2.6967C33.6032 1.29018 35.5109 0.5 37.5 0.5C39.4891 0.5 41.3968 1.29018 42.8033 2.6967C44.2098 4.10322 45 6.01088 45 8C45 9.98912 44.2098 11.8968 42.8033 13.3033C41.3968 14.7098 39.4891 15.5 37.5 15.5Z" fill="#002859"/><path d="M18.1182 42.7169L18.3531 42.1964L18.2964 42.1794L24.8378 26.1893L24.8476 26.1653L24.8549 26.1404L24.8999 25.9867L25.2615 24.7511L24.1607 25.4187C20.9308 27.3776 18.3743 30.274 16.8316 33.7221C16.8314 33.7225 16.8313 33.7229 16.8311 33.7233L15.1643 37.3903L9.24951 34.6994L10.9177 31.0294L10.9187 31.0271C12.9961 26.3959 16.4324 22.5056 20.7719 19.8725L20.7719 19.8725L20.7774 19.869C24.5755 17.4961 28.8003 16.6729 33.3768 17.5898L39.4132 19.024L39.4352 19.0292L39.4577 19.0324C40.9275 19.2434 42.3305 19.6368 43.9162 20.249L43.9181 20.2497C44.5075 20.4744 45.1027 20.722 45.8815 21.061C45.9152 21.0762 46.0539 21.1371 46.2511 21.2237C46.7347 21.436 47.5698 21.8028 48.0705 22.0272L64.8643 31.1542L61.7573 36.8678L45.2617 27.8822L45.2422 27.8716L45.2219 27.8627L43.5231 27.124L43.0462 26.9166L42.8577 27.4013L36.989 42.4913L36.989 42.4913L36.9871 42.4963L25.7182 72.4261L19.6341 70.138L28.8705 45.5936L29.0643 45.0785L28.533 44.9348L25.1205 44.0123L24.7091 43.9011L24.5341 44.2897L20.0446 54.2585L14.1164 51.5837L18.1182 42.7169ZM7.5 75C5.64348 75 3.86301 74.2625 2.55025 72.9497C1.2375 71.637 0.5 69.8565 0.5 68C0.5 66.1435 1.2375 64.363 2.55025 63.0503C3.86301 61.7375 5.64348 61 7.5 61C9.35651 61 11.137 61.7375 12.4497 63.0503C13.7625 64.363 14.5 66.1435 14.5 68C14.5 69.8565 13.7625 71.637 12.4497 72.9497C11.137 74.2625 9.35651 75 7.5 75ZM37.5 15C35.6435 15 33.863 14.2625 32.5502 12.9497C31.2375 11.637 30.5 9.85651 30.5 8C30.5 6.14348 31.2375 4.36301 32.5502 3.05025C33.863 1.7375 35.6435 1 37.5 1C39.3565 1 41.137 1.7375 42.4497 3.05025C43.7625 4.36301 44.5 6.14348 44.5 8C44.5 9.85651 43.7625 11.637 42.4497 12.9497C41.137 14.2625 39.3565 15 37.5 15Z" stroke="#002859" stroke-opacity="0.1"/></svg>
