<svg width="83" height="79" viewBox="0 0 83 79" fill="none" xmlns="http://www.w3.org/2000/svg">
<mask id="path-1-inside-1" fill="white">
<path fill-rule="evenodd" clip-rule="evenodd" d="M82.912 31.3241C82.8857 30.9641 82.5632 30.6116 82.222 30.5741L81.5245 30.4991H81.4457L81.4157 30.4916L80.6957 30.4129C80.2608 30.3418 79.8596 30.1348 79.5497 29.8215C79.2398 29.5082 79.0371 29.1048 78.9707 28.6691C78.9257 28.3754 78.8731 28.0828 78.8132 27.7916C78.7597 27.4981 78.701 27.2056 78.637 26.9141C78.5392 26.4782 78.5791 26.0227 78.751 25.6103C78.9229 25.1979 79.2185 24.849 79.597 24.6116L80.9432 23.8391C81.095 23.74 81.2107 23.5943 81.2729 23.424C81.335 23.2537 81.3404 23.0678 81.2882 22.8941L79.6382 18.7204C79.5706 18.5954 79.4704 18.4911 79.3482 18.4185C79.2261 18.3459 79.0866 18.3077 78.9445 18.3079C78.8837 18.3065 78.823 18.314 78.7645 18.3304L77.2982 18.7804C77.1329 18.8306 76.961 18.8559 76.7882 18.8554C76.4406 18.852 76.0994 18.7613 75.796 18.5916C75.4926 18.4218 75.2368 18.1786 75.052 17.8841L74.077 16.3616C73.8421 15.9849 73.7238 15.5472 73.7372 15.1034C73.7505 14.6597 73.8949 14.2298 74.152 13.8679L75.1157 12.6191C75.2164 12.4699 75.2684 12.2931 75.2643 12.1131C75.2603 11.9331 75.2005 11.7587 75.0932 11.6141L72.0332 8.41164C71.8966 8.29804 71.7233 8.23805 71.5457 8.24289C71.3796 8.24073 71.2178 8.29641 71.0882 8.40039L69.8882 9.40539C69.5378 9.69362 69.0969 9.84898 68.6432 9.84414C68.2299 9.84902 67.826 9.72011 67.492 9.47664L66.0445 8.46414C65.6848 8.20336 65.4119 7.84032 65.2614 7.42229C65.1109 7.00426 65.0898 6.55061 65.2007 6.12039L65.632 4.57914C65.6748 4.40253 65.6593 4.21678 65.5876 4.04977C65.5159 3.88276 65.392 3.7435 65.2345 3.65289L61.252 1.92789C61.1891 1.90733 61.1232 1.8972 61.057 1.89789C60.9185 1.89894 60.7826 1.93617 60.6629 2.00589C60.5432 2.07561 60.4437 2.17541 60.3745 2.29539L59.6357 3.70539C59.4601 4.02644 59.2022 4.29498 58.8885 4.48346C58.5748 4.67193 58.2167 4.77355 57.8507 4.77789C57.7118 4.77865 57.5732 4.76228 57.4382 4.72914L55.732 4.36914C55.3039 4.27209 54.9165 4.04472 54.623 3.71833C54.3295 3.39194 54.1444 2.98258 54.0932 2.54664L53.932 0.956641C53.8945 0.596641 53.557 0.25914 53.2157 0.23289C53.2082 0.23289 52.1545 0.150391 51.0857 0.150391C50.017 0.150391 48.9632 0.23289 48.952 0.23289C48.6107 0.25914 48.277 0.60039 48.2395 0.96039L48.0745 2.55789C48.0222 2.99535 47.8336 3.40529 47.5355 3.72967C47.2374 4.05406 46.8447 4.27646 46.4132 4.36539C46.4057 4.36539 46.1882 4.39539 45.5695 4.52664C44.9507 4.65414 44.7407 4.71414 44.737 4.71414C44.5935 4.75006 44.4461 4.7677 44.2982 4.76664C43.9371 4.76253 43.5835 4.66243 43.2738 4.47659C42.964 4.29076 42.7093 4.02589 42.5357 3.70914L41.797 2.29539C41.728 2.17516 41.6287 2.07516 41.5089 2.00539C41.3891 1.93563 41.2531 1.89856 41.1145 1.89789C41.0395 1.89789 40.9645 1.90914 40.897 1.93539L36.907 3.66414C36.6295 3.80289 36.4457 4.23789 36.5395 4.57914L36.9707 6.11664C37.079 6.5493 37.0546 7.0045 36.9008 7.42313C36.747 7.84176 36.4708 8.20446 36.1082 8.46414L34.657 9.48039C34.3265 9.71884 33.9282 9.84502 33.5207 9.84039C33.0664 9.84589 32.6246 9.69197 32.272 9.40539L31.0832 8.40039L30.1195 8.43039L27.0782 11.6141C26.9707 11.7595 26.9111 11.9347 26.9077 12.1155C26.9043 12.2963 26.9574 12.4736 27.0595 12.6229L28.0195 13.8679C28.552 14.5579 28.5782 15.6641 28.0832 16.3804L27.1157 17.9029C26.9305 18.1932 26.6757 18.4327 26.3744 18.5997C26.0732 18.7666 25.7351 18.8558 25.3907 18.8591C25.2192 18.8588 25.0487 18.8335 24.8845 18.7841L23.407 18.3341C23.3488 18.3152 23.2881 18.3051 23.227 18.3041C23.0802 18.306 22.9367 18.3482 22.8123 18.4263C22.6879 18.5044 22.5875 18.6152 22.522 18.7466L20.872 22.9204C20.767 23.2279 20.9282 23.6704 21.2245 23.8391L22.5745 24.6116C22.9492 24.8515 23.2428 25.1989 23.4168 25.6084C23.5908 26.0179 23.637 26.4704 23.5495 26.9066L23.212 28.7029L23.062 29.5054C27.9895 24.4504 36.247 20.8166 42.7007 17.7829C45.9032 16.2754 48.5507 15.4541 51.0632 15.4879C59.7445 15.4879 67.102 22.2679 68.1932 31.2641L68.2232 31.4704C68.2382 31.5829 68.2532 31.6879 68.2607 31.7966C68.3724 32.9715 68.3724 34.1543 68.2607 35.3291C68.2532 35.4379 68.2382 35.5466 68.2232 35.6554C68.016 37.5137 67.5306 39.3302 66.7832 41.0441C62.6432 49.7179 67.6345 48.1016 55.7582 62.7566C55.7657 62.7566 55.9832 62.7266 56.602 62.5954C57.2207 62.4679 57.427 62.4079 57.4307 62.4079C57.5752 62.3708 57.7241 62.3532 57.8732 62.3554C58.5932 62.3554 59.2982 62.7791 59.6357 63.4129L60.3745 64.8304C60.4439 64.9499 60.5435 65.0492 60.6632 65.1183C60.783 65.1873 60.9187 65.2238 61.057 65.2241C61.132 65.2241 61.207 65.2129 61.2745 65.1866L65.2607 63.4616C65.542 63.3191 65.7295 62.8841 65.632 62.5466L65.2007 61.0091C65.0908 60.5763 65.1139 60.1204 65.2671 59.7009C65.4203 59.2815 65.6965 58.918 66.0595 58.6579L67.5145 57.6416C67.8447 57.4027 68.2431 57.2765 68.6507 57.2816C69.1195 57.2816 69.562 57.4316 69.8957 57.7166L71.0882 58.7254C71.2197 58.8283 71.3826 58.8826 71.5495 58.8791C71.7445 58.8791 71.9245 58.8116 72.052 58.6916L75.1045 55.4966C75.3107 55.2566 75.3257 54.7841 75.112 54.5029L74.152 53.2541C73.8926 52.8892 73.748 52.4552 73.7366 52.0076C73.7252 51.56 73.8477 51.1192 74.0882 50.7416L75.0557 49.2229C75.24 48.9316 75.4946 48.6914 75.796 48.5243C76.0975 48.3572 76.4361 48.2686 76.7807 48.2666C76.9532 48.2666 77.1257 48.2891 77.287 48.3416L78.7645 48.7916C78.8229 48.809 78.8835 48.8178 78.9445 48.8179C79.237 48.8179 79.5332 48.6304 79.6457 48.3754L81.2957 44.2016C81.3411 44.0309 81.3314 43.8502 81.2681 43.6852C81.2048 43.5203 81.0911 43.3795 80.9432 43.2829L79.5932 42.5141C79.2163 42.2746 78.9212 41.926 78.7471 41.5148C78.5729 41.1035 78.528 40.649 78.6182 40.2116L78.9595 38.4229C79.0369 37.9928 79.2458 37.5974 79.5575 37.2911C79.8691 36.9848 80.2682 36.7828 80.6995 36.7129L81.4232 36.6304L81.4532 36.6266H81.5207L82.222 36.5516C82.5595 36.5104 82.8857 36.1579 82.912 35.7979C82.912 35.7829 82.927 35.6066 82.9382 35.3291C82.9532 35.0479 82.9907 34.3316 82.9907 33.5591C82.9907 32.4379 82.912 31.3391 82.912 31.3279V31.3241Z"/>
</mask>
<path fill-rule="evenodd" clip-rule="evenodd" d="M82.912 31.3241C82.8857 30.9641 82.5632 30.6116 82.222 30.5741L81.5245 30.4991H81.4457L81.4157 30.4916L80.6957 30.4129C80.2608 30.3418 79.8596 30.1348 79.5497 29.8215C79.2398 29.5082 79.0371 29.1048 78.9707 28.6691C78.9257 28.3754 78.8731 28.0828 78.8132 27.7916C78.7597 27.4981 78.701 27.2056 78.637 26.9141C78.5392 26.4782 78.5791 26.0227 78.751 25.6103C78.9229 25.1979 79.2185 24.849 79.597 24.6116L80.9432 23.8391C81.095 23.74 81.2107 23.5943 81.2729 23.424C81.335 23.2537 81.3404 23.0678 81.2882 22.8941L79.6382 18.7204C79.5706 18.5954 79.4704 18.4911 79.3482 18.4185C79.2261 18.3459 79.0866 18.3077 78.9445 18.3079C78.8837 18.3065 78.823 18.314 78.7645 18.3304L77.2982 18.7804C77.1329 18.8306 76.961 18.8559 76.7882 18.8554C76.4406 18.852 76.0994 18.7613 75.796 18.5916C75.4926 18.4218 75.2368 18.1786 75.052 17.8841L74.077 16.3616C73.8421 15.9849 73.7238 15.5472 73.7372 15.1034C73.7505 14.6597 73.8949 14.2298 74.152 13.8679L75.1157 12.6191C75.2164 12.4699 75.2684 12.2931 75.2643 12.1131C75.2603 11.9331 75.2005 11.7587 75.0932 11.6141L72.0332 8.41164C71.8966 8.29804 71.7233 8.23805 71.5457 8.24289C71.3796 8.24073 71.2178 8.29641 71.0882 8.40039L69.8882 9.40539C69.5378 9.69362 69.0969 9.84898 68.6432 9.84414C68.2299 9.84902 67.826 9.72011 67.492 9.47664L66.0445 8.46414C65.6848 8.20336 65.4119 7.84032 65.2614 7.42229C65.1109 7.00426 65.0898 6.55061 65.2007 6.12039L65.632 4.57914C65.6748 4.40253 65.6593 4.21678 65.5876 4.04977C65.5159 3.88276 65.392 3.7435 65.2345 3.65289L61.252 1.92789C61.1891 1.90733 61.1232 1.8972 61.057 1.89789C60.9185 1.89894 60.7826 1.93617 60.6629 2.00589C60.5432 2.07561 60.4437 2.17541 60.3745 2.29539L59.6357 3.70539C59.4601 4.02644 59.2022 4.29498 58.8885 4.48346C58.5748 4.67193 58.2167 4.77355 57.8507 4.77789C57.7118 4.77865 57.5732 4.76228 57.4382 4.72914L55.732 4.36914C55.3039 4.27209 54.9165 4.04472 54.623 3.71833C54.3295 3.39194 54.1444 2.98258 54.0932 2.54664L53.932 0.956641C53.8945 0.596641 53.557 0.25914 53.2157 0.23289C53.2082 0.23289 52.1545 0.150391 51.0857 0.150391C50.017 0.150391 48.9632 0.23289 48.952 0.23289C48.6107 0.25914 48.277 0.60039 48.2395 0.96039L48.0745 2.55789C48.0222 2.99535 47.8336 3.40529 47.5355 3.72967C47.2374 4.05406 46.8447 4.27646 46.4132 4.36539C46.4057 4.36539 46.1882 4.39539 45.5695 4.52664C44.9507 4.65414 44.7407 4.71414 44.737 4.71414C44.5935 4.75006 44.4461 4.7677 44.2982 4.76664C43.9371 4.76253 43.5835 4.66243 43.2738 4.47659C42.964 4.29076 42.7093 4.02589 42.5357 3.70914L41.797 2.29539C41.728 2.17516 41.6287 2.07516 41.5089 2.00539C41.3891 1.93563 41.2531 1.89856 41.1145 1.89789C41.0395 1.89789 40.9645 1.90914 40.897 1.93539L36.907 3.66414C36.6295 3.80289 36.4457 4.23789 36.5395 4.57914L36.9707 6.11664C37.079 6.5493 37.0546 7.0045 36.9008 7.42313C36.747 7.84176 36.4708 8.20446 36.1082 8.46414L34.657 9.48039C34.3265 9.71884 33.9282 9.84502 33.5207 9.84039C33.0664 9.84589 32.6246 9.69197 32.272 9.40539L31.0832 8.40039L30.1195 8.43039L27.0782 11.6141C26.9707 11.7595 26.9111 11.9347 26.9077 12.1155C26.9043 12.2963 26.9574 12.4736 27.0595 12.6229L28.0195 13.8679C28.552 14.5579 28.5782 15.6641 28.0832 16.3804L27.1157 17.9029C26.9305 18.1932 26.6757 18.4327 26.3744 18.5997C26.0732 18.7666 25.7351 18.8558 25.3907 18.8591C25.2192 18.8588 25.0487 18.8335 24.8845 18.7841L23.407 18.3341C23.3488 18.3152 23.2881 18.3051 23.227 18.3041C23.0802 18.306 22.9367 18.3482 22.8123 18.4263C22.6879 18.5044 22.5875 18.6152 22.522 18.7466L20.872 22.9204C20.767 23.2279 20.9282 23.6704 21.2245 23.8391L22.5745 24.6116C22.9492 24.8515 23.2428 25.1989 23.4168 25.6084C23.5908 26.0179 23.637 26.4704 23.5495 26.9066L23.212 28.7029L23.062 29.5054C27.9895 24.4504 36.247 20.8166 42.7007 17.7829C45.9032 16.2754 48.5507 15.4541 51.0632 15.4879C59.7445 15.4879 67.102 22.2679 68.1932 31.2641L68.2232 31.4704C68.2382 31.5829 68.2532 31.6879 68.2607 31.7966C68.3724 32.9715 68.3724 34.1543 68.2607 35.3291C68.2532 35.4379 68.2382 35.5466 68.2232 35.6554C68.016 37.5137 67.5306 39.3302 66.7832 41.0441C62.6432 49.7179 67.6345 48.1016 55.7582 62.7566C55.7657 62.7566 55.9832 62.7266 56.602 62.5954C57.2207 62.4679 57.427 62.4079 57.4307 62.4079C57.5752 62.3708 57.7241 62.3532 57.8732 62.3554C58.5932 62.3554 59.2982 62.7791 59.6357 63.4129L60.3745 64.8304C60.4439 64.9499 60.5435 65.0492 60.6632 65.1183C60.783 65.1873 60.9187 65.2238 61.057 65.2241C61.132 65.2241 61.207 65.2129 61.2745 65.1866L65.2607 63.4616C65.542 63.3191 65.7295 62.8841 65.632 62.5466L65.2007 61.0091C65.0908 60.5763 65.1139 60.1204 65.2671 59.7009C65.4203 59.2815 65.6965 58.918 66.0595 58.6579L67.5145 57.6416C67.8447 57.4027 68.2431 57.2765 68.6507 57.2816C69.1195 57.2816 69.562 57.4316 69.8957 57.7166L71.0882 58.7254C71.2197 58.8283 71.3826 58.8826 71.5495 58.8791C71.7445 58.8791 71.9245 58.8116 72.052 58.6916L75.1045 55.4966C75.3107 55.2566 75.3257 54.7841 75.112 54.5029L74.152 53.2541C73.8926 52.8892 73.748 52.4552 73.7366 52.0076C73.7252 51.56 73.8477 51.1192 74.0882 50.7416L75.0557 49.2229C75.24 48.9316 75.4946 48.6914 75.796 48.5243C76.0975 48.3572 76.4361 48.2686 76.7807 48.2666C76.9532 48.2666 77.1257 48.2891 77.287 48.3416L78.7645 48.7916C78.8229 48.809 78.8835 48.8178 78.9445 48.8179C79.237 48.8179 79.5332 48.6304 79.6457 48.3754L81.2957 44.2016C81.3411 44.0309 81.3314 43.8502 81.2681 43.6852C81.2048 43.5203 81.0911 43.3795 80.9432 43.2829L79.5932 42.5141C79.2163 42.2746 78.9212 41.926 78.7471 41.5148C78.5729 41.1035 78.528 40.649 78.6182 40.2116L78.9595 38.4229C79.0369 37.9928 79.2458 37.5974 79.5575 37.2911C79.8691 36.9848 80.2682 36.7828 80.6995 36.7129L81.4232 36.6304L81.4532 36.6266H81.5207L82.222 36.5516C82.5595 36.5104 82.8857 36.1579 82.912 35.7979C82.912 35.7829 82.927 35.6066 82.9382 35.3291C82.9532 35.0479 82.9907 34.3316 82.9907 33.5591C82.9907 32.4379 82.912 31.3391 82.912 31.3279V31.3241Z" fill="#CD1531" stroke="#002859" stroke-opacity="0.1" stroke-width="2" mask="url(#path-1-inside-1)"/>
<mask id="path-2-inside-2" fill="white">
<path fill-rule="evenodd" clip-rule="evenodd" d="M28.2337 70.5406C29.5575 68.4894 30.9037 65.0544 31.0012 62.0844C26.1975 64.9719 19.56 64.0719 14.9513 66.5244C15.8137 64.5144 16.9387 62.7219 18.2025 61.0606C20.46 58.2594 23.325 55.6194 25.9087 52.4356C28.2862 49.7244 30.2812 46.9044 31.0725 43.4394C27.1912 43.4394 22.0162 45.8469 22.0162 45.8469C23.835 37.4244 31.1437 25.0119 40.9537 18.9969C42.2025 18.2356 43.8675 17.3094 45.045 16.7656C41.1675 17.6469 25.1025 26.6281 19.6837 35.6769C14.265 44.7256 12.1387 51.8806 5.895 56.3656C6.66 57.1006 8.59125 57.8319 10.575 57.5244C5.71125 64.8481 5.9625 69.1606 0.75 76.6381C0.75 76.6381 13.3537 78.5619 22.9762 74.4106L21.8662 78.0481C34.3912 78.0481 60.0937 67.4881 67.0762 40.3794C56.7187 62.1106 32.5387 69.3031 28.2337 70.5406Z"/>
</mask>
<path fill-rule="evenodd" clip-rule="evenodd" d="M28.2337 70.5406C29.5575 68.4894 30.9037 65.0544 31.0012 62.0844C26.1975 64.9719 19.56 64.0719 14.9513 66.5244C15.8137 64.5144 16.9387 62.7219 18.2025 61.0606C20.46 58.2594 23.325 55.6194 25.9087 52.4356C28.2862 49.7244 30.2812 46.9044 31.0725 43.4394C27.1912 43.4394 22.0162 45.8469 22.0162 45.8469C23.835 37.4244 31.1437 25.0119 40.9537 18.9969C42.2025 18.2356 43.8675 17.3094 45.045 16.7656C41.1675 17.6469 25.1025 26.6281 19.6837 35.6769C14.265 44.7256 12.1387 51.8806 5.895 56.3656C6.66 57.1006 8.59125 57.8319 10.575 57.5244C5.71125 64.8481 5.9625 69.1606 0.75 76.6381C0.75 76.6381 13.3537 78.5619 22.9762 74.4106L21.8662 78.0481C34.3912 78.0481 60.0937 67.4881 67.0762 40.3794C56.7187 62.1106 32.5387 69.3031 28.2337 70.5406Z" fill="#CD1531"/>
<path d="M31.0012 62.0844L32.0007 62.1172L32.061 60.2806L30.4861 61.2273L31.0012 62.0844ZM14.9513 66.5244L14.0323 66.13L12.9112 68.7428L15.421 67.4072L14.9513 66.5244ZM18.2025 61.0606L17.4239 60.4331L17.4151 60.444L17.4066 60.4552L18.2025 61.0606ZM25.9087 52.4356L25.1569 51.7763L25.1443 51.7907L25.1323 51.8055L25.9087 52.4356ZM31.0725 43.4394L32.0474 43.662L32.3266 42.4394H31.0725V43.4394ZM22.0162 45.8469L21.0388 45.6358L20.6142 47.6021L22.4381 46.7536L22.0162 45.8469ZM40.9537 18.9969L40.4332 18.143L40.431 18.1444L40.9537 18.9969ZM45.045 16.7656L45.4642 17.6735L44.8234 15.7905L45.045 16.7656ZM5.895 56.3656L5.31159 55.5534L4.33583 56.2543L5.20217 57.0867L5.895 56.3656ZM10.575 57.5244L11.408 58.0776L12.6623 56.1889L10.4218 56.5362L10.575 57.5244ZM0.75 76.6381L-0.0703514 76.0663L-0.989114 77.3842L0.599114 77.6267L0.75 76.6381ZM22.9762 74.4106L23.9327 74.7025L24.563 72.637L22.5801 73.4924L22.9762 74.4106ZM21.8662 78.0481L20.9098 77.7562L20.5156 79.0481H21.8662V78.0481ZM67.0762 40.3794L68.0446 40.6288L66.1735 39.9491L67.0762 40.3794ZM29.074 71.0828C30.4722 68.9162 31.896 65.3076 32.0007 62.1172L30.0018 62.0516C29.9115 64.8011 28.6428 68.0625 27.3935 69.9984L29.074 71.0828ZM30.4861 61.2273C28.2761 62.5557 25.6076 63.0334 22.749 63.4794C19.9725 63.9127 16.9676 64.3186 14.4815 65.6416L15.421 67.4072C17.5437 66.2776 20.1618 65.9073 23.0573 65.4555C25.8705 65.0166 28.9226 64.5006 31.5164 62.9414L30.4861 61.2273ZM15.8702 66.9187C16.6931 65.0011 17.7713 63.2791 18.9984 61.6661L17.4066 60.4552C16.1062 62.1646 14.9344 64.0277 14.0323 66.13L15.8702 66.9187ZM18.9811 61.6881C20.0817 60.3224 21.3347 58.9908 22.6625 57.5759C23.9815 56.1703 25.3675 54.6895 26.6852 53.0658L25.1323 51.8055C23.8663 53.3654 22.5279 54.7966 21.2041 56.2073C19.889 57.6086 18.5808 58.9975 17.4239 60.4331L18.9811 61.6881ZM26.6606 53.0949C29.0725 50.3445 31.2002 47.372 32.0474 43.662L30.0976 43.2167C29.3623 46.4367 27.5 49.1042 25.1569 51.7763L26.6606 53.0949ZM31.0725 42.4394C28.9634 42.4394 26.5728 43.0854 24.7684 43.6959C23.8537 44.0054 23.0645 44.3145 22.5033 44.5466C22.2224 44.6628 21.9978 44.7599 21.8423 44.8286C21.7644 44.863 21.7038 44.8903 21.662 44.9092C21.6411 44.9187 21.6249 44.9261 21.6136 44.9314C21.6079 44.934 21.6035 44.936 21.6003 44.9375C21.5987 44.9382 21.5974 44.9388 21.5964 44.9393C21.5959 44.9395 21.5955 44.9397 21.5952 44.9398C21.595 44.9399 21.5948 44.94 21.5948 44.94C21.5946 44.9401 21.5944 44.9402 22.0162 45.8469C22.4381 46.7536 22.4379 46.7536 22.4379 46.7536C22.4379 46.7536 22.4378 46.7537 22.4378 46.7537C22.4378 46.7537 22.4378 46.7537 22.438 46.7536C22.4383 46.7535 22.4389 46.7532 22.4398 46.7528C22.4416 46.7519 22.4446 46.7505 22.4489 46.7486C22.4574 46.7447 22.4707 46.7386 22.4886 46.7304C22.5245 46.7141 22.5789 46.6897 22.6501 46.6582C22.7927 46.5952 23.0027 46.5043 23.2676 46.3948C23.798 46.1755 24.5452 45.8828 25.4094 45.5904C27.1628 44.9971 29.3004 44.4394 31.0725 44.4394V42.4394ZM22.9937 46.0579C23.871 41.9952 26.0927 36.9021 29.3196 32.0748C32.5453 27.2494 36.728 22.7609 41.4765 19.8494L40.431 18.1444C35.3695 21.2479 30.9928 25.973 27.6569 30.9633C24.3223 35.9517 21.9802 41.276 21.0388 45.6358L22.9937 46.0579ZM41.4743 19.8507C42.705 19.1005 44.3342 18.1953 45.4642 17.6735L44.6258 15.8578C43.4008 16.4234 41.7 17.3708 40.4332 18.143L41.4743 19.8507ZM44.8234 15.7905C43.7186 16.0416 41.8891 16.8222 39.7483 17.932C37.5776 19.0573 35.0038 20.5649 32.3838 22.3289C27.1777 25.8343 21.6527 30.4425 18.8258 35.1631L20.5417 36.1906C23.1336 31.8625 28.3505 27.4557 33.5008 23.9879C36.0591 22.2654 38.5673 20.797 40.6687 19.7076C42.8 18.6028 44.4326 17.9303 45.2666 17.7408L44.8234 15.7905ZM18.8258 35.1631C17.4565 37.4497 16.2973 39.6132 15.2362 41.6307C14.1709 43.6563 13.2139 45.516 12.2306 47.2364C10.2699 50.6666 8.26329 53.4332 5.31159 55.5534L6.4784 57.1778C9.77046 54.8131 11.9488 51.7597 13.9669 48.2289C14.973 46.4688 15.9538 44.5629 17.0063 42.5617C18.063 40.5525 19.2016 38.4284 20.5417 36.1906L18.8258 35.1631ZM5.20217 57.0867C5.73888 57.6024 6.57722 58.0327 7.5031 58.2974C8.44755 58.5674 9.57323 58.6916 10.7282 58.5126L10.4218 56.5362C9.59302 56.6646 8.76119 56.577 8.05283 56.3744C7.32591 56.1666 6.81611 55.8638 6.58783 55.6445L5.20217 57.0867ZM9.74197 56.9711C7.2494 60.7244 6.06431 63.717 4.8676 66.6453C3.67849 69.5549 2.47139 72.42 -0.0703514 76.0663L1.57035 77.21C4.24111 73.3787 5.51464 70.3488 6.71896 67.4019C7.91569 64.4736 9.03685 61.6481 11.408 58.0776L9.74197 56.9711ZM0.75 76.6381C0.599114 77.6267 0.599373 77.6267 0.59968 77.6268C0.599846 77.6268 0.600201 77.6268 0.600534 77.6269C0.601199 77.627 0.602057 77.6271 0.603106 77.6273C0.605204 77.6276 0.608067 77.628 0.611687 77.6286C0.618927 77.6296 0.629197 77.6312 0.642438 77.6331C0.668918 77.6369 0.707283 77.6424 0.757056 77.6493C0.856596 77.663 1.0018 77.6824 1.18884 77.7053C1.56287 77.751 2.10455 77.8112 2.78331 77.8701C4.14006 77.9877 6.04861 78.1004 8.26341 78.081C12.6738 78.0426 18.3839 77.4809 23.3724 75.3288L22.5801 73.4924C17.9461 75.4916 12.5431 76.0436 8.24597 76.0811C6.10701 76.0998 4.26322 75.9909 2.95607 75.8776C2.30287 75.8209 1.78471 75.7633 1.43188 75.7201C1.2555 75.6985 1.12052 75.6805 1.03073 75.6681C0.985846 75.6619 0.952263 75.6571 0.930461 75.6539C0.919561 75.6523 0.911606 75.6512 0.906657 75.6504C0.904182 75.6501 0.902459 75.6498 0.901495 75.6497C0.901012 75.6496 0.90072 75.6495 0.900618 75.6495C0.900567 75.6495 0.900634 75.6495 0.900609 75.6495C0.900723 75.6495 0.900886 75.6496 0.75 76.6381ZM22.0198 74.1187L20.9098 77.7562L22.8227 78.34L23.9327 74.7025L22.0198 74.1187ZM21.8662 79.0481C28.3568 79.0481 38.1064 76.3313 47.1121 70.2064C56.142 64.065 64.4829 54.4568 68.0446 40.6288L66.1079 40.1299C62.6871 53.4107 54.6855 62.6368 45.9873 68.5526C37.2648 74.4849 27.9007 77.0481 21.8662 77.0481V79.0481ZM66.1735 39.9491C56.0247 61.2425 32.2661 68.341 27.9575 69.5795L28.51 71.5017C32.8114 70.2652 57.4128 62.9787 67.979 40.8096L66.1735 39.9491Z" fill="#002859" fill-opacity="0.1" mask="url(#path-2-inside-2)"/>
<path fill-rule="evenodd" clip-rule="evenodd" d="M52.2366 26.7524L52.0941 26.7749L51.6104 26.8649L52.5666 21.7274C46.1504 22.0912 35.9016 27.9937 30.2429 36.0262L29.8641 36.2399L30.3704 35.4937C36.0854 27.1274 46.7354 21.1199 53.0954 20.7637L53.3541 20.7487L52.2366 26.7487V26.7524ZM46.0604 30.0449C45.8916 30.6899 45.7529 31.3424 45.6104 31.9949L44.4554 37.1324L43.4016 41.8462L42.9404 43.9087C42.7641 44.6362 42.4454 45.4274 41.2079 46.3574C41.6788 45.875 42.0206 45.2818 42.2016 44.6324V44.6137L42.6441 42.6524C42.9629 41.2162 43.2816 39.7837 43.6079 38.3474L44.6766 33.5549L45.1266 31.5562C45.3591 30.5062 45.5579 29.1562 46.5741 28.6087C46.6229 28.5824 46.6754 28.5599 46.7241 28.5412C46.3641 28.9537 46.1991 29.5162 46.0604 30.0449ZM53.7141 19.8262C46.5516 19.8262 34.6191 26.7337 28.8516 36.2137L28.1504 38.2987C28.1504 38.2987 33.4116 35.0999 39.5391 32.1862C40.0341 31.9649 40.4129 31.7662 40.6941 32.1112C40.9529 32.4262 40.9116 32.7974 40.8141 33.3224L40.6941 33.9674L37.2029 50.2912C39.5766 49.0162 43.1466 46.7812 43.7841 44.1562L46.6979 31.1437C46.8216 30.8099 46.9454 30.4799 47.1179 30.1537C47.2829 29.8387 47.4929 29.5012 47.7254 29.2387C48.0179 28.9162 48.3141 28.7624 48.6704 28.5562L48.6854 28.5187C50.2304 28.0499 51.6854 27.7199 52.9754 27.5887L54.4154 19.8449C54.1818 19.8329 53.948 19.8266 53.7141 19.8262Z" fill="#CD1531"/>
<path d="M29.0532 37.1829L29.3077 36.4262C29.3836 36.302 29.4605 36.1783 29.5386 36.055L30.0481 36.6083C29.6725 36.8231 29.339 37.0162 29.0532 37.1829ZM31.3029 35.8987C31.0975 36.0135 30.8995 36.1249 30.7095 36.2323C33.4898 32.3149 37.3867 28.9052 41.3842 26.4259C45.1459 24.093 48.9509 22.612 51.9551 22.2805L51.1188 26.7734L51.0023 27.3992C50.2122 27.566 49.3872 27.7832 48.5402 28.0402L48.3104 28.11L48.2707 28.209C47.9752 28.3786 47.6588 28.5679 47.355 28.9028L47.355 28.9027L47.3511 28.9072C47.0819 29.2111 46.8505 29.5868 46.6755 29.9206C46.6249 30.0164 46.5783 30.1122 46.5347 30.2074C46.5378 30.1955 46.5409 30.1837 46.544 30.1718C46.6856 29.6321 46.8284 29.1822 47.1009 28.8699L46.5446 28.0745C46.4846 28.0976 46.411 28.1286 46.3371 28.1684L46.337 28.1685C45.6802 28.5223 45.3165 29.1226 45.0896 29.7151C44.9053 30.1961 44.7926 30.7265 44.6971 31.176C44.677 31.2704 44.6577 31.3612 44.6386 31.4472C44.6386 31.4475 44.6385 31.4478 44.6385 31.4481L44.1888 33.4451L44.1886 33.4461L43.1203 38.2367C43.1202 38.2369 43.1202 38.2372 43.1201 38.2375C42.7937 39.6745 42.4748 41.1076 42.1562 42.5434C42.1561 42.5436 42.1561 42.5439 42.156 42.5441L41.7139 44.5036L41.7016 44.558V44.5617C41.539 45.1053 41.2469 45.6017 40.8501 46.0082L41.501 46.7489C41.2887 46.9506 41.063 47.1492 40.8265 47.3442C39.9123 48.0979 38.8764 48.7657 37.9223 49.3181L41.1831 34.072L41.1833 34.072L41.1857 34.0589L41.3057 33.4139L41.3057 33.4137C41.3972 32.921 41.506 32.3132 41.0817 31.7952C40.9589 31.6447 40.8044 31.5298 40.6167 31.4699C40.4341 31.4116 40.2581 31.4175 40.1089 31.4441C39.8723 31.4863 39.6175 31.6019 39.4145 31.6939C39.387 31.7063 39.3605 31.7183 39.3351 31.7297L39.3351 31.7296L39.3244 31.7346C36.2477 33.1977 33.3902 34.7314 31.3029 35.8987Z" stroke="#002859" stroke-opacity="0.1"/>
<path fill-rule="evenodd" clip-rule="evenodd" d="M55.2594 45.4916C60.3069 40.9128 63.0256 34.4666 63.0256 30.4503C63.0256 24.9866 59.2981 22.9653 56.8194 22.2266L56.9994 21.3791L57.0444 21.1616L57.2506 21.2178C59.6881 21.9078 63.7681 23.9253 63.7681 29.6928C63.7681 35.2428 60.7831 40.7291 55.2594 45.4916ZM29.0356 56.4641L30.6669 55.8341C41.1294 51.7728 47.6356 46.7441 51.2506 43.2416C54.0481 40.5341 56.1181 37.7291 57.2544 35.2128C55.0419 41.1191 48.1494 50.6403 29.0356 56.4641ZM56.3731 20.0703L54.7869 27.5703C56.5006 27.8103 57.3669 29.0853 57.3669 31.2753C57.3669 37.4441 46.1356 50.6328 23.7969 57.2028C24.0219 57.2853 24.9706 57.4841 25.8744 57.4841C42.7981 57.4841 64.6494 45.1278 64.6494 29.6966C64.6494 23.8241 60.7306 20.8916 56.3769 20.0703H56.3731ZM39.8056 57.9003C39.7381 58.1366 39.6744 58.3878 39.6106 58.6428C39.1756 60.3566 38.6356 62.4866 35.4069 64.5303L34.9981 64.7928L35.0131 64.7253C37.9419 62.7753 38.4556 60.7878 38.8756 59.1303C38.9394 58.8678 39.0031 58.6203 39.0706 58.3803C38.1193 58.6395 37.1655 58.8895 36.2094 59.1303L36.3519 58.4703L36.4756 58.4403C37.5781 58.1628 38.6131 57.8928 39.5619 57.6341L39.9106 57.5366L39.8056 57.9003ZM35.6131 57.7128L33.7381 66.4691C39.8656 63.6003 40.0194 60.3003 40.6681 58.0953L40.9119 56.9966L41.0806 56.2541C39.1419 56.8166 37.0344 57.3603 35.6131 57.7091V57.7128Z" fill="#CD1531"/>
<path d="M54.9234 45.1212L55.5173 45.7927C54.2254 46.9145 52.8224 47.9734 51.3322 48.9601C44.9516 53.1851 37.057 56.0261 29.7006 56.7823C48.5453 50.9072 55.4675 41.4082 57.7226 35.3882L56.9041 35.0505C57.5376 33.6629 57.8669 32.3823 57.8669 31.2753C57.8669 30.1223 57.64 29.143 57.1307 28.407C56.707 27.7948 56.1129 27.3873 55.3798 27.1832L56.3475 22.6077L56.6766 22.7057C57.8685 23.061 59.3319 23.7171 60.4931 24.9146C61.6423 26.0999 62.5256 27.8454 62.5256 30.4503C62.5256 32.3599 61.8748 34.8994 60.586 37.5407C59.3003 40.1756 57.3954 42.8788 54.9234 45.1212ZM29.1445 56.8356C28.151 56.9238 27.1682 56.9734 26.2015 56.9825C27.1132 56.6865 28.0054 56.3795 28.8779 56.0626L29.1445 56.8356ZM36.3315 59.6152C37.0125 59.4436 37.6923 59.2675 38.3709 59.0867C38.1664 59.8915 37.9446 60.7149 37.4521 61.5682C36.9473 62.4429 36.1428 63.3725 34.736 64.3091L34.708 64.3278L35.6821 59.7787L36.3315 59.6152Z" stroke="#002859" stroke-opacity="0.1"/>
</svg>
