<svg width="63" height="76" viewBox="0 0 63 76" fill="none" xmlns="http://www.w3.org/2000/svg"><path d="M30 15.5C28.0109 15.5 26.1032 14.7098 24.6967 13.3033C23.2902 11.8968 22.5 9.98912 22.5 8C22.5 6.01088 23.2902 4.10322 24.6967 2.6967C26.1032 1.29018 28.0109 0.5 30 0.5C31.9891 0.5 33.8968 1.29018 35.3033 2.6967C36.7098 4.10322 37.5 6.01088 37.5 8C37.5 9.98912 36.7098 11.8968 35.3033 13.3033C33.8968 14.7098 31.9891 15.5 30 15.5ZM6.75 33.125L9.75 39.5C10.125 39.875 9.75 40.625 9 41C6 42.125 2.625 40.625 1.5 37.625L0.749999 35.375C-0.375001 32.375 1.125 29 4.125 27.875L26.625 19.25L28.125 22.625L7.5 30.875C6.75 31.25 6.375 32.375 6.75 33.125ZM0 25.25C3 5.75 18.75 2 18.75 2C18.75 2 9 6.125 9.75 21.125L0 25.25ZM37.5 45.5L29.625 26.75C28.875 24.5 30 21.5 32.625 20.375L34.875 19.625H35.25L45 15.875C45 14.375 43.5 11 40.875 8.375V8C40.875 4.25 39 0.875 37.875 0.5C43.125 2.75 48 8 51 17.375C51.375 18.875 50.625 20.375 49.5 20.75L43.125 23.375L48.375 40.25L46.5 56.75L36.75 75.5H28.125L37.125 59C37.875 57.125 38.625 54.5 38.25 52.25L37.5 45.5ZM62.625 75.5H55.5L49.125 58.25L51 44.375L62.625 75.5Z" fill="#002859"/><path d="M27.4572 22.3536L7.31431 30.4108L7.295 30.4185L7.27639 30.4278C6.75595 30.688 6.40079 31.1852 6.22878 31.7013C6.05741 32.2154 6.04267 32.8237 6.29992 33.3428L9.29759 39.7129L9.33475 39.7919L9.396 39.8531C9.39636 39.855 9.3968 39.858 9.397 39.8625C9.39808 39.8863 9.39189 39.9419 9.34966 40.0264C9.26636 40.193 9.079 40.3957 8.79873 40.5414C6.06201 41.552 2.99765 40.1806 1.97136 37.4579L1.22434 35.2169L1.22141 35.2081L1.21816 35.1994C0.188395 32.4534 1.56371 29.3695 4.30057 28.3432L4.30397 28.3419L26.3608 19.8867L27.4572 22.3536ZM10.8082 6.70625C12.3415 5.50626 13.8262 4.62053 15.0953 3.97916C14.6016 4.44736 14.0883 4.99281 13.5795 5.62362C11.1955 8.57985 8.94 13.3777 9.23492 20.8L0.642046 24.4355C2.26081 15.3615 6.716 9.90881 10.8082 6.70625ZM37.9969 45.4448L37.989 45.373L37.961 45.3064L30.0936 26.5744C29.437 24.5716 30.4438 21.8657 32.8033 20.8426L34.9561 20.125H35.25H35.3428L35.4295 20.0917L45.1795 16.3417L45.5 16.2184V15.875C45.5 15.0037 45.0803 13.6983 44.366 12.3172C43.6681 10.9679 42.6579 9.48611 41.375 8.16979V8C41.375 6.04587 40.8876 4.19518 40.2531 2.77985C40.1536 2.55772 40.0498 2.34515 39.9431 2.14361C44.1563 4.76534 47.9956 9.63658 50.5187 17.5114C50.8372 18.8156 50.1582 20.0036 49.3419 20.2757L49.3256 20.2811L49.3096 20.2877L42.9346 22.9127L42.5117 23.0868L42.6476 23.5235L47.8663 40.2981L46.0137 56.6015L36.4464 75H28.9673L37.5639 59.2394L37.5782 59.2133L37.5892 59.1857C38.3451 57.2962 39.1388 54.5698 38.7455 52.1814L37.9969 45.4448ZM30 15C28.1435 15 26.363 14.2625 25.0503 12.9497C23.7375 11.637 23 9.85651 23 8C23 6.14348 23.7375 4.36301 25.0503 3.05025C26.363 1.7375 28.1435 1 30 1C31.8565 1 33.637 1.7375 34.9497 3.05025C36.2625 4.36301 37 6.14349 37 8C37 9.85651 36.2625 11.637 34.9497 12.9497C33.637 14.2625 31.8565 15 30 15ZM49.6372 58.1935L51.2287 46.4163L61.9045 75H55.8483L49.6372 58.1935Z" stroke="#002859" stroke-opacity="0.1"/></svg>
