<svg width="50" height="72" viewBox="0 0 50 72" fill="none" xmlns="http://www.w3.org/2000/svg"><path d="M18.4469 42.3246L25.4631 24.7783L18.9644 24.5008L18.5106 24.4521C15.3044 23.9196 12.0494 22.3558 9.72439 20.0308L3.50689 13.8133C3.11689 13.4946 2.75689 13.1383 2.44189 12.7483L2.22439 12.5308L2.25064 12.5008C1.38855 11.3517 0.874612 9.97921 0.769939 8.54648C0.665267 7.11376 0.974262 5.68111 1.66018 4.41891C2.3461 3.1567 3.38009 2.11803 4.63919 1.42642C5.89829 0.734807 7.32952 0.419346 8.7627 0.517548C10.1959 0.61575 11.5707 1.12348 12.7237 1.98037C13.8767 2.83726 14.7594 4.00726 15.2667 5.35123C15.774 6.6952 15.8847 8.1566 15.5856 9.56166C15.2865 10.9667 14.5902 12.2563 13.5794 13.2771L15.0269 14.7246C16.1481 15.8421 17.8769 16.6933 19.5381 17.0121L27.7506 17.3758C29.2319 17.3758 30.9869 17.7508 32.9631 18.4221L42.7281 22.5546C49.7744 25.5733 53.3331 33.6208 50.7606 40.8171L48.5106 46.8171L41.4906 44.1846L43.7181 38.2408C44.1034 37.1155 44.196 35.9108 43.9874 34.7398C43.7788 33.5688 43.2758 32.4701 42.5256 31.5471L38.3931 42.1483L25.6244 75.3471L18.6269 72.6546L28.6769 46.5321L25.3619 45.2346L19.9131 57.1821L13.0881 54.0696L18.4469 42.3246ZM42.0006 15.5008C40.0115 15.5008 38.1039 14.7107 36.6973 13.3041C35.2908 11.8976 34.5006 9.98997 34.5006 8.00085C34.5006 6.01172 35.2908 4.10407 36.6973 2.69754C38.1039 1.29102 40.0115 0.500845 42.0006 0.500845C43.9898 0.500845 45.8974 1.29102 47.3039 2.69754C48.7105 4.10407 49.5006 6.01172 49.5006 8.00085C49.5006 9.98997 48.7105 11.8976 47.3039 13.3041C45.8974 14.7107 43.9898 15.5008 42.0006 15.5008Z" fill="#002859"/><path d="M18.9018 42.5321L18.9067 42.5213L18.9111 42.5102L25.9274 24.964L26.1893 24.3089L25.4845 24.2788L19.0018 24.002L18.5785 23.9565C15.47 23.4373 12.3192 21.9185 10.0779 19.6773L3.86044 13.4598L3.84271 13.4421L3.8233 13.4262C3.4577 13.1274 3.12251 12.7953 2.83086 12.4342L2.81419 12.4135L2.79824 12.3976L2.65059 12.2008C1.84598 11.1283 1.3663 9.84726 1.26861 8.51005C1.17092 7.17284 1.45931 5.83571 2.0995 4.65765C2.7397 3.47958 3.70475 2.51016 4.87991 1.86466C6.05507 1.21915 7.39089 0.924723 8.72852 1.01638C10.0662 1.10803 11.3493 1.58192 12.4255 2.38168C13.5016 3.18145 14.3254 4.27344 14.7989 5.52781C15.2724 6.78219 15.3758 8.14616 15.0966 9.45755C14.8174 10.7689 14.1675 11.9726 13.2241 12.9253L12.874 13.2788L13.2258 13.6306L14.6733 15.0782L14.6739 15.0787C15.8757 16.2765 17.6993 17.1684 19.4439 17.5031L19.4797 17.51L19.516 17.5116L27.7285 17.8754L27.7396 17.8758H27.7506C29.1506 17.8758 30.8412 18.2307 32.7851 18.8897L42.5312 23.0142C42.5316 23.0143 42.5319 23.0145 42.5323 23.0146C49.3368 25.9305 52.7709 33.702 50.2911 40.6451L48.218 46.1734L42.1343 43.892L44.1863 38.4163L44.1889 38.4096L44.1912 38.4028C44.6039 37.1972 44.7031 35.9065 44.4796 34.6521C44.2562 33.3976 43.7173 32.2206 42.9137 31.2318L42.3718 30.565L42.0598 31.3655L37.9273 41.9667L37.9265 41.9689L25.3372 74.7009L19.2731 72.3675L29.1435 46.7116L29.322 46.2477L28.8591 46.0665L25.5441 44.769L25.1034 44.5965L24.907 45.0271L19.6657 56.5197L13.7506 53.8222L18.9018 42.5321ZM42.0006 15.0008C40.1441 15.0008 38.3636 14.2633 37.0509 12.9506C35.7381 11.6378 35.0006 9.85736 35.0006 8.00085C35.0006 6.14433 35.7381 4.36385 37.0509 3.0511C38.3636 1.73834 40.1441 1.00084 42.0006 1.00084C43.8572 1.00084 45.6376 1.73834 46.9504 3.0511C48.2631 4.36385 49.0006 6.14433 49.0006 8.00085C49.0006 9.85736 48.2631 11.6378 46.9504 12.9506C45.6376 14.2633 43.8572 15.0008 42.0006 15.0008Z" stroke="#002859" stroke-opacity="0.1"/></svg>
