<svg width="62" height="76" viewBox="0 0 62 64" fill="none" xmlns="http://www.w3.org/2000/svg"><path d="M21.5362 34.7062L20.64 38.1562C19.545 41.9925 16.38 44.8538 12.3187 46.0125L1.81875 48.6375L0 41.3625L10.38 38.7675C11.9513 38.3175 13.0875 37.29 13.4062 36.1838L16.0312 26.0588L16.2112 25.5225C17.066 23.5221 18.4869 21.8153 20.2992 20.612C22.1114 19.4087 24.2359 18.7615 26.4112 18.75H35.4112C39.8662 18.75 43.8713 21.4725 45.6075 25.5225L45.7912 26.0588L48.39 36.0938C48.8287 37.6312 49.7025 38.5087 50.8762 38.655L51.3187 38.7375L61.8187 41.3625L60 48.6375L49.695 46.0613C45.4238 45.4238 42.3675 42.3112 41.1562 38.0662L40.2862 34.71V45L51.5362 54.75C52.6612 55.5 53.4112 57 53.4112 58.5C53.4112 61.5 51.1612 63.75 48.1612 63.75H23.4112V56.25L42.1612 55.5L38.4112 54.375C34.2862 52.875 29.7862 52.125 25.6612 52.5H23.7862C21.5362 52.5 19.6612 54.375 19.6612 56.625V63.75H13.6612C10.6613 63.75 8.41125 61.5 8.41125 58.5C8.41125 57 9.16125 55.875 10.2862 54.75L21.5362 45V34.7062ZM30.9112 15C28.9221 15 27.0145 14.2098 25.6079 12.8033C24.2014 11.3968 23.4112 9.48912 23.4112 7.5C23.4112 5.51088 24.2014 3.60322 25.6079 2.1967C27.0145 0.790176 28.9221 0 30.9112 0C32.9004 0 34.808 0.790176 36.2145 2.1967C37.6211 3.60322 38.4112 5.51088 38.4112 7.5C38.4112 9.48912 37.6211 11.3968 36.2145 12.8033C34.808 14.2098 32.9004 15 30.9112 15Z" fill="#002859"/><path d="M22.0362 34.7062L21.0523 34.5805L20.1576 38.0247C19.1162 41.6649 16.1047 44.4098 12.1895 45.5294L2.18255 48.0312L0.60634 41.7263L10.5013 39.2526L10.5095 39.2505L10.5177 39.2482C12.2 38.7664 13.5064 37.6419 13.8867 36.3222L13.8869 36.3222L13.8902 36.3092L16.5108 26.2012L16.6788 25.7008C17.4961 23.7979 18.8502 22.1742 20.5758 21.0285C22.3064 19.8794 24.3351 19.2613 26.4125 19.25H35.4112C39.6549 19.25 43.4772 21.8409 45.1406 25.7025L45.312 26.2027L47.906 36.2191L47.9058 36.2191L47.9092 36.231C48.3806 37.8827 49.369 38.9641 50.7988 39.1492L51.2122 39.2262L61.2124 41.7263L59.6362 48.0312L49.8163 45.5762L49.7928 45.5703L49.7688 45.5667C45.7264 44.9634 42.8071 42.0225 41.6387 37.935L40.7703 34.5845L39.7862 34.71V45V45.2283L39.9588 45.3778L51.2088 55.1278L51.2326 55.1485L51.2589 55.166C52.2278 55.812 52.9112 57.1457 52.9112 58.5C52.9112 61.2239 50.8851 63.25 48.1612 63.25H23.9112V56.7304L42.1812 55.9996L42.3049 55.0211L38.5686 53.9002C34.4005 52.3864 29.8403 51.6223 25.6387 52H23.7862C21.2601 52 19.1612 54.0989 19.1612 56.625V63.25H13.6612C10.9374 63.25 8.91125 61.2239 8.91125 58.5C8.91125 57.2016 9.5458 56.2004 10.6273 55.1161L21.8637 45.3778L22.0362 45.2283V45V34.7062ZM30.9112 14.5C29.0547 14.5 27.2743 13.7625 25.9615 12.4497C24.6487 11.137 23.9112 9.35651 23.9112 7.5C23.9112 5.64348 24.6487 3.86301 25.9615 2.55025C27.2743 1.2375 29.0547 0.5 30.9112 0.5C32.7678 0.5 34.5482 1.2375 35.861 2.55025C37.1737 3.86301 37.9112 5.64348 37.9112 7.5C37.9112 9.35651 37.1737 11.137 35.861 12.4497C34.5482 13.7625 32.7678 14.5 30.9112 14.5Z" stroke="#002859" stroke-opacity="0.1"/></svg>
