<svg width="76" height="76" viewBox="0 0 76 76" fill="none" xmlns="http://www.w3.org/2000/svg">
<path d="M34.25 47.465L22.625 40.625C18.5 38 18.125 32.75 22.25 28.625C33.125 17.75 35.375 15.5 38.375 15.5H40.25C43.25 15.5 44.75 17.75 54.125 29.375C54.5 30.125 55.25 30.5 56.375 30.5V30.875H68V38.375H54.125C52.25 38.375 50.375 37.625 49.25 36.125L43.625 30.125L35.3337 37.5275L39.5262 41.7238C40.9963 43.19 41.75 44.8925 41.75 47V64.25H34.25V47.465ZM49.25 15.5C47.2609 15.5 45.3532 14.7098 43.9467 13.3033C42.5402 11.8968 41.75 9.98912 41.75 8C41.75 6.01088 42.5402 4.10322 43.9467 2.6967C45.3532 1.29018 47.2609 0.5 49.25 0.5C51.2391 0.5 53.1468 1.29018 54.5533 2.6967C55.9598 4.10322 56.75 6.01088 56.75 8C56.75 9.98912 55.9598 11.8968 54.5533 13.3033C53.1468 14.7098 51.2391 15.5 49.25 15.5ZM60.5 45.5C68.75 45.5 75.5 52.25 75.5 60.5C75.5 68.75 68.75 75.5 60.5 75.5C52.25 75.5 45.5 68.75 45.5 60.5C45.5 52.25 52.25 45.5 60.5 45.5ZM60.5 51.5C55.625 51.5 51.5 55.625 51.5 60.5C51.5 65.375 55.625 69.5 60.5 69.5C65.375 69.5 69.5 65.375 69.5 60.5C69.5 55.625 65.375 51.5 60.5 51.5ZM15.5 45.5C23.75 45.5 30.5 52.25 30.5 60.5C30.5 68.75 23.75 75.5 15.5 75.5C7.25 75.5 0.5 68.75 0.5 60.5C0.5 52.25 7.25 45.5 15.5 45.5ZM15.5 51.5C10.625 51.5 6.5 55.625 6.5 60.5C6.5 65.375 10.625 69.5 15.5 69.5C20.375 69.5 24.5 65.375 24.5 60.5C24.5 55.625 20.375 51.5 15.5 51.5Z" fill="#002859"/>
<path d="M34.75 47.465V47.1791L34.5036 47.0341L22.8862 40.1985C20.9578 38.9685 19.9294 37.1469 19.8433 35.1658C19.7567 33.175 20.6206 30.9615 22.6036 28.9786C28.0504 23.5317 31.3113 20.2716 33.5865 18.3678C35.8515 16.4726 37.0506 16 38.375 16H40.25C40.9254 16 41.4966 16.1237 42.123 16.4706C42.7661 16.8267 43.4865 17.4284 44.435 18.4232C45.9826 20.0463 48.0558 22.6256 51.3043 26.6673C52.0411 27.584 52.8384 28.576 53.7037 29.6491C54.1303 30.4579 54.8963 30.8737 55.875 30.9751V31.375H56.375H67.5V37.875H54.125C52.372 37.875 50.6612 37.1733 49.65 35.825L49.6335 35.803L49.6148 35.783L43.9898 29.783L43.656 29.427L43.292 29.752L35.0008 37.1545L34.6062 37.5068L34.98 37.8809L39.1725 42.0771L39.1731 42.0778C40.5542 43.4553 41.25 45.0324 41.25 47V63.75H34.75V47.465ZM49.25 15C47.3935 15 45.613 14.2625 44.3003 12.9497C42.9875 11.637 42.25 9.85651 42.25 8C42.25 6.14348 42.9875 4.36301 44.3003 3.05025C45.613 1.7375 47.3935 1 49.25 1C51.1065 1 52.887 1.7375 54.1997 3.05025C55.5125 4.36301 56.25 6.14348 56.25 8C56.25 9.85651 55.5125 11.637 54.1997 12.9497C52.887 14.2625 51.1065 15 49.25 15ZM60.5 46C68.4739 46 75 52.5261 75 60.5C75 68.4739 68.4739 75 60.5 75C52.5261 75 46 68.4739 46 60.5C46 52.5261 52.5261 46 60.5 46ZM60.5 51C55.3489 51 51 55.3489 51 60.5C51 65.6511 55.3489 70 60.5 70C65.6511 70 70 65.6511 70 60.5C70 55.3489 65.6511 51 60.5 51ZM15.5 46C23.4739 46 30 52.5261 30 60.5C30 68.4739 23.4739 75 15.5 75C7.52614 75 1 68.4739 1 60.5C1 52.5261 7.52614 46 15.5 46ZM15.5 51C10.3489 51 6 55.3489 6 60.5C6 65.6511 10.3489 70 15.5 70C20.6511 70 25 65.6511 25 60.5C25 55.3489 20.6511 51 15.5 51Z" stroke="#002859" stroke-opacity="0.1"/>
</svg>
