<svg width="250" height="250" viewBox="0 0 250 250" fill="none" xmlns="http://www.w3.org/2000/svg">
<path opacity="0.2" d="M136.806 247.22C198.554 247.22 248.611 197.163 248.611 135.415C248.611 73.6664 198.554 23.6094 136.806 23.6094C75.0571 23.6094 25 73.6664 25 135.415C25 197.163 75.0571 247.22 136.806 247.22Z" fill="#002859"/>
<path opacity="0.7" d="M8.33312 124.998C12.1684 124.998 15.2776 121.889 15.2776 118.054C15.2776 114.219 12.1684 111.109 8.33312 111.109C4.49781 111.109 1.38867 114.219 1.38867 118.054C1.38867 121.889 4.49781 124.998 8.33312 124.998Z" fill="#002859"/>
<path opacity="0.7" d="M230.832 218.471C231.983 218.471 232.916 217.539 232.916 216.388C232.916 215.237 231.983 214.305 230.832 214.305C229.682 214.305 228.749 215.237 228.749 216.388C228.749 217.539 229.682 218.471 230.832 218.471Z" fill="#002859"/>
<path opacity="0.7" d="M12.7776 192.082C14.235 192.082 15.4165 190.901 15.4165 189.444C15.4165 187.986 14.235 186.805 12.7776 186.805C11.3201 186.805 10.1387 187.986 10.1387 189.444C10.1387 190.901 11.3201 192.082 12.7776 192.082Z" fill="#002859"/>
<path opacity="0.7" d="M47.0832 230.416C47.8503 230.416 48.4721 229.795 48.4721 229.028C48.4721 228.26 47.8503 227.639 47.0832 227.639C46.3162 227.639 45.6943 228.26 45.6943 229.028C45.6943 229.795 46.3162 230.416 47.0832 230.416Z" fill="#002859"/>
<path opacity="0.7" d="M196.111 27.6378C198.029 27.6378 199.583 26.0832 199.583 24.1656C199.583 22.2479 198.029 20.6934 196.111 20.6934C194.193 20.6934 192.639 22.2479 192.639 24.1656C192.639 26.0832 194.193 27.6378 196.111 27.6378Z" fill="#002859"/>
<path opacity="0.7" d="M20.5551 30.5556C22.0892 30.5556 23.3329 29.3119 23.3329 27.7778C23.3329 26.2437 22.0892 25 20.5551 25C19.021 25 17.7773 26.2437 17.7773 27.7778C17.7773 29.3119 19.021 30.5556 20.5551 30.5556Z" fill="#002859"/>
<path opacity="0.7" d="M88.0557 5.83247L90.139 3.74913C90.4168 3.47135 90.5557 3.19358 90.5557 2.77691C90.5557 2.36024 90.4168 2.08247 90.139 1.80469C89.7223 1.38802 88.7501 1.38802 88.3334 1.80469L86.1112 4.02691L84.0279 1.94358C83.7501 1.6658 83.4723 1.52691 83.0557 1.52691C82.639 1.52691 82.3612 1.6658 82.0834 1.94358C81.9445 2.08247 81.8057 2.36024 81.8057 2.77691C81.8057 3.19358 81.9446 3.47135 82.2223 3.74913L84.3057 5.83247L82.2223 7.9158C81.9446 8.19358 81.8057 8.47135 81.8057 8.88802C81.8057 9.30469 81.9446 9.58247 82.2223 9.86024C82.5001 10.138 82.7779 10.2769 83.1946 10.2769C83.4723 10.2769 83.889 9.99913 84.1668 9.86024L86.1112 7.63802L88.1946 9.72135C88.4723 9.99913 88.7501 10.138 89.1668 10.138C89.5834 10.138 89.8612 9.86024 90.139 9.72135C90.4168 9.44358 90.5557 9.1658 90.5557 8.74913C90.5557 8.33247 90.4168 8.05469 90.139 7.77691L88.0557 5.83247Z" fill="#002859"/>
<path d="M114.723 41.666L105.278 51.2494M105.278 41.666L114.723 51.2494L105.278 41.666Z" stroke="#002859" stroke-width="3" stroke-linecap="round"/>
<path d="M104.583 104.166C107.344 104.166 109.583 101.927 109.583 99.166C109.583 96.4046 107.344 94.166 104.583 94.166C101.822 94.166 99.583 96.4046 99.583 99.166C99.583 101.927 101.822 104.166 104.583 104.166Z" fill="#3485D6" stroke="#002859" stroke-width="3" stroke-linecap="round"/>
<path d="M193.194 214.999C195.418 214.999 197.222 213.196 197.222 210.971C197.222 208.747 195.418 206.943 193.194 206.943C190.969 206.943 189.166 208.747 189.166 210.971C189.166 213.196 190.969 214.999 193.194 214.999Z" fill="white" stroke="#002859" stroke-width="3" stroke-linecap="round"/>
<path d="M64.861 110V124.306M38.1943 135.694H53.4721H38.1943ZM46.8054 117.639L57.6388 128.472L46.8054 117.639Z" stroke="#002859" stroke-width="4" stroke-linecap="round"/>
<path d="M133.056 169.027H178.056V195.694H133.056V169.027Z" fill="#3485D6"/>
<path d="M141.249 70.6942H170.693V79.5831H141.249V70.6942ZM149.166 60.1387H161.388V69.1664H149.166V60.1387Z" fill="white"/>
<path d="M140 71.25H171.667V79.3055H140V71.25Z" fill="white"/>
<path d="M132.639 168.055V195.138" stroke="#002859" stroke-width="4"/>
<path d="M178.056 112.638V80.832H133.75V112.638H138.194V123.193H133.75V157.638H177.778V123.193H173.472V112.638H178.056Z" fill="#3485D6"/>
<path d="M156.528 156.25V90.1387H142.917C140.556 90.1387 138.611 92.0831 138.611 94.4442V156.25H156.528ZM138.611 170.694H156.528V194.861H138.611V170.694Z" fill="#446DB5"/>
<path d="M145.556 110.693C144.167 110.693 143.056 109.582 143.056 108.193V81.1094H147.917V108.193C148.056 109.582 146.945 110.693 145.556 110.693ZM145.556 152.359C144.167 152.359 143.056 151.248 143.056 149.859V122.776H147.917V149.859C148.056 151.248 146.945 152.359 145.556 152.359ZM145.556 187.082C144.167 187.082 143.056 185.97 143.056 184.582V182.082C143.056 180.693 144.167 179.582 145.556 179.582C146.945 179.582 148.056 180.693 148.056 182.082V184.582C148.056 185.97 146.945 187.082 145.556 187.082Z" fill="white"/>
<path d="M178.472 195.138V167.915M178.472 158.193V126.388C178.472 123.61 176.25 121.388 173.472 121.388H173.333V113.193H173.472C176.25 113.193 178.472 110.971 178.472 108.193V87.2209C178.472 83.0543 175.139 79.582 170.833 79.582H140.278C136.111 79.582 132.639 82.9154 132.639 87.2209V108.193C132.639 110.971 134.861 113.193 137.639 113.193V121.388C134.861 121.388 132.639 123.61 132.639 126.388V158.193H178.472Z" stroke="#002859" stroke-width="4"/>
<path opacity="0.3" d="M157.5 71.1094H171.111V79.9983H157.5V71.1094Z" fill="#002859"/>
<path d="M148.75 69.4436V61.8047C148.75 60.4158 149.861 59.3047 151.25 59.3047H159.722C161.111 59.3047 162.222 60.4158 162.222 61.8047V69.4436M137.777 80.9713C137.777 74.5825 142.916 69.4436 149.305 69.4436H161.944C168.333 69.4436 173.472 74.5825 173.472 80.9713H137.777Z" stroke="#002859" stroke-width="4"/>
<path d="M132.5 135.694C132.5 135.694 136.667 140.694 142.917 139.583C149.167 138.472 166.528 125.972 176.944 131.944" stroke="#002859" stroke-width="3"/>
<path d="M132.916 132.499C132.916 132.499 137.222 129.444 142.222 129.583C147.222 129.722 154.999 134.444 154.999 134.444" stroke="#002859" stroke-width="3"/>
<path d="M51.9443 193.055H221.805" stroke="#002859" stroke-width="4" stroke-linecap="round"/>
<path d="M168.194 110.137H154.305C152.916 110.137 151.666 109.026 151.666 107.498C151.666 106.109 152.777 104.859 154.305 104.859H168.194V110.137Z" fill="#446DB5"/>
<path d="M72.2217 137.776H98.3328V191.248H72.2217V137.776ZM172.638 136.109H199.305V192.915H172.638V136.109Z" fill="white"/>
<path d="M98.4717 158.471H174.305V167.637H98.4717V158.471Z" fill="white"/>
<path opacity="0.3" d="M171.389 167.777H100.694V159.027H171.389" fill="#002859"/>
<path d="M149.444 163.055H156.667M131.944 163.055H142.778H131.944Z" stroke="white" stroke-width="1.9" stroke-linecap="round"/>
<path d="M102.222 159.027H171.388M171.388 167.777H102.222H171.388Z" stroke="#002859" stroke-width="4" stroke-linecap="round"/>
<path d="M72.2223 184.444H66.6668C64.5834 184.444 63.0557 182.778 63.0557 180.833V148.611C63.0557 146.528 64.7223 145 66.6668 145H72.2223V184.444Z" fill="#3485D6"/>
<path opacity="0.3" d="M73.4727 182.916H99.8615V192.222H73.4727V182.916Z" fill="#002859"/>
<path d="M54.3057 157.777H61.8057V170.694H54.3057V157.777Z" fill="white"/>
<path fill-rule="evenodd" clip-rule="evenodd" d="M62.0824 171.526H55.6935C54.5824 171.526 53.749 170.693 53.749 169.582V159.304C53.749 158.193 54.5824 157.359 55.6935 157.359H62.0824V171.526V171.526Z" stroke="#002859" stroke-width="4" stroke-linecap="round"/>
<path d="M64.0273 174.166H71.6662V182.083H64.0273V174.166Z" fill="#346FD6"/>
<path d="M66.8057 150.555V156.944" stroke="white" stroke-width="2" stroke-linecap="round"/>
<path d="M72.2223 184.444H66.6668C64.5834 184.444 63.0557 182.778 63.0557 180.833V148.611C63.0557 146.528 64.7223 145 66.6668 145H72.2223" stroke="#002859" stroke-width="4" stroke-linecap="round"/>
<path opacity="0.1" d="M96.8046 192.637H76.3879C74.1657 192.637 72.499 190.832 72.499 188.748V139.998C72.499 137.776 74.3046 136.109 76.3879 136.109H96.8046C99.0268 136.109 100.693 137.915 100.693 139.998V188.748C100.693 190.832 99.0268 192.637 96.8046 192.637Z" fill="#002859"/>
<path d="M90.9716 144.443V151.666M76.666 144.443V151.666V144.443Z" stroke="white" stroke-width="2" stroke-linecap="round"/>
<path d="M86.8046 136.804V192.359M95.5546 192.637H77.6379C74.8601 192.637 72.499 190.276 72.499 187.498V141.248C72.499 138.47 74.8601 136.109 77.6379 136.109H95.5546C98.3324 136.109 100.693 138.47 100.693 141.248V187.498C100.693 190.276 98.4712 192.637 95.5546 192.637Z" stroke="#002859" stroke-width="4"/>
<path opacity="0.3" d="M54.7217 164.582H62.0828V170.276H54.7217V164.582Z" fill="#002859"/>
<path d="M200.417 184.442H205.973C208.056 184.442 209.584 182.776 209.584 180.831V148.609C209.584 146.526 207.917 144.998 205.973 144.998H200.417V184.442Z" fill="#3485D6"/>
<path opacity="0.3" d="M172.777 183.055H199.166V192.36H172.777V183.055Z" fill="#002859"/>
<path d="M210.972 157.914H218.472V170.831H210.972V157.914Z" fill="white"/>
<path fill-rule="evenodd" clip-rule="evenodd" d="M210.694 171.526H217.083C218.194 171.526 219.028 170.693 219.028 169.582V159.304C219.028 158.193 218.194 157.359 217.083 157.359H210.694V171.526V171.526Z" stroke="#002859" stroke-width="4" stroke-linecap="round"/>
<path d="M200.973 174.164H208.612V182.081H200.973V174.164Z" fill="#346FD6"/>
<path d="M200.417 184.442H205.973C208.056 184.442 209.584 182.776 209.584 180.831V148.609C209.584 146.526 207.917 144.998 205.973 144.998H200.417" stroke="#002859" stroke-width="4" stroke-linecap="round"/>
<path opacity="0.1" d="M175.833 192.637H196.25C198.472 192.637 200.139 190.832 200.139 188.748V139.998C200.139 137.776 198.333 136.109 196.25 136.109H175.833C173.611 136.109 171.944 137.915 171.944 139.998V188.748C171.944 190.832 173.75 192.637 175.833 192.637Z" fill="#002859"/>
<path d="M176.111 144.443V151.666M190 144.443V151.666V144.443Z" stroke="white" stroke-width="2" stroke-linecap="round"/>
<path d="M185.833 136.804V192.359M177.083 192.637H195C197.778 192.637 200.139 190.276 200.139 187.498V141.248C200.139 138.47 197.778 136.109 195 136.109H177.083C174.305 136.109 171.944 138.47 171.944 141.248V187.498C171.944 190.276 174.305 192.637 177.083 192.637Z" stroke="#002859" stroke-width="4"/>
<path opacity="0.3" d="M210.694 164.443H218.055V170.138H210.694V164.443Z" fill="#002859"/>
</svg>
