<svg width="250" height="250" viewBox="0 0 250 250" fill="none" xmlns="http://www.w3.org/2000/svg">
<path opacity="0.2" d="M136.806 247.22C198.554 247.22 248.611 197.163 248.611 135.415C248.611 73.6664 198.554 23.6094 136.806 23.6094C75.0571 23.6094 25 73.6664 25 135.415C25 197.163 75.0571 247.22 136.806 247.22Z" fill="#002859"/>
<path opacity="0.7" d="M8.33312 124.998C12.1684 124.998 15.2776 121.889 15.2776 118.054C15.2776 114.219 12.1684 111.109 8.33312 111.109C4.49781 111.109 1.38867 114.219 1.38867 118.054C1.38867 121.889 4.49781 124.998 8.33312 124.998Z" fill="#002859"/>
<path opacity="0.7" d="M230.833 218.471C231.984 218.471 232.917 217.539 232.917 216.388C232.917 215.237 231.984 214.305 230.833 214.305C229.683 214.305 228.75 215.237 228.75 216.388C228.75 217.539 229.683 218.471 230.833 218.471Z" fill="#002859"/>
<path opacity="0.7" d="M12.7776 192.082C14.235 192.082 15.4165 190.901 15.4165 189.444C15.4165 187.986 14.235 186.805 12.7776 186.805C11.3201 186.805 10.1387 187.986 10.1387 189.444C10.1387 190.901 11.3201 192.082 12.7776 192.082Z" fill="#002859"/>
<path opacity="0.7" d="M47.0832 230.416C47.8503 230.416 48.4721 229.795 48.4721 229.028C48.4721 228.261 47.8503 227.639 47.0832 227.639C46.3162 227.639 45.6943 228.261 45.6943 229.028C45.6943 229.795 46.3162 230.416 47.0832 230.416Z" fill="#002859"/>
<path opacity="0.7" d="M196.111 27.6378C198.029 27.6378 199.583 26.0832 199.583 24.1656C199.583 22.2479 198.029 20.6934 196.111 20.6934C194.193 20.6934 192.639 22.2479 192.639 24.1656C192.639 26.0832 194.193 27.6378 196.111 27.6378Z" fill="#002859"/>
<path opacity="0.7" d="M20.5551 30.5556C22.0892 30.5556 23.3329 29.3119 23.3329 27.7778C23.3329 26.2437 22.0892 25 20.5551 25C19.021 25 17.7773 26.2437 17.7773 27.7778C17.7773 29.3119 19.021 30.5556 20.5551 30.5556Z" fill="#002859"/>
<path opacity="0.7" d="M88.0557 5.83247L90.139 3.74913C90.4168 3.47135 90.5557 3.19358 90.5557 2.77691C90.5557 2.36024 90.4168 2.08247 90.139 1.80469C89.7223 1.38802 88.7501 1.38802 88.3334 1.80469L86.1112 4.02691L84.0279 1.94358C83.7501 1.6658 83.4723 1.52691 83.0557 1.52691C82.639 1.52691 82.3612 1.6658 82.0834 1.94358C81.9445 2.08247 81.8057 2.36024 81.8057 2.77691C81.8057 3.19358 81.9446 3.47135 82.2223 3.74913L84.3057 5.83247L82.2223 7.9158C81.9446 8.19358 81.8057 8.47135 81.8057 8.88802C81.8057 9.30469 81.9446 9.58247 82.2223 9.86024C82.5001 10.138 82.7779 10.2769 83.1946 10.2769C83.4723 10.2769 83.889 9.99913 84.1668 9.86024L86.1112 7.63802L88.1946 9.72135C88.4723 9.99913 88.7501 10.138 89.1668 10.138C89.5834 10.138 89.8612 9.86024 90.139 9.72135C90.4168 9.44358 90.5557 9.1658 90.5557 8.74913C90.5557 8.33247 90.4168 8.05469 90.139 7.77691L88.0557 5.83247Z" fill="#002859"/>
<path d="M146.944 202.916C139.444 203.888 132.222 203.61 125.138 202.36M83.194 172.916C78.8885 166.249 75.5551 158.888 73.8885 150.416C71.6663 140.554 72.0829 130.554 74.1663 121.388L83.194 172.916ZM133.472 71.11C153.055 69.7212 171.805 77.0823 185 90.5545C187.638 93.1934 189.861 95.9712 192.083 99.0267C193.611 101.388 195.138 103.749 196.388 106.249C199.166 111.388 201.111 116.943 202.361 122.777C209.722 156.388 189.861 189.443 157.638 199.582L133.472 71.11Z" stroke="#002859" stroke-width="4" stroke-linecap="round"/>
<path d="M108.194 67.6387L97.3608 78.6109M97.3608 67.6387L108.194 78.6109L97.3608 67.6387Z" stroke="#002859" stroke-width="4" stroke-linecap="round"/>
<path opacity="0.36" d="M124.861 51.5273H150.694C153.333 51.5273 155.416 53.7496 155.416 56.2496V76.944C155.416 79.5829 153.194 81.6662 150.694 81.6662H148.194L147.639 89.0273C147.639 89.444 147.083 89.7218 146.805 89.444L138.889 81.944H124.861C122.222 81.944 120.139 79.7218 120.139 77.2218V56.3885C120.139 53.6107 122.222 51.5273 124.861 51.5273Z" fill="#002859"/>
<path d="M130 47.6387H155.833C158.472 47.6387 160.556 49.8609 160.556 52.3609V74.4442C160.556 77.0831 158.333 79.1665 155.833 79.1665H153.333L152.778 86.5276C152.778 86.9442 152.222 87.222 151.945 86.9442L144.028 79.4442H130C127.361 79.4442 125.278 77.222 125.278 74.722V52.4998C125.278 49.8609 127.361 47.6387 130 47.6387Z" fill="white"/>
<path d="M132.777 76.8049C131.805 75.9716 131.111 74.5827 131.111 73.1938V55.1382C131.111 52.4994 133.333 50.416 135.833 50.416H131.944C129.305 50.416 127.222 52.6382 127.222 55.1382V73.3327C127.222 75.9716 129.444 78.0549 131.944 78.0549H132.777V76.8049Z" fill="#3485D6"/>
<path d="M153.194 67.6389H140.555M153.194 60H135.417H153.194Z" stroke="#002859" stroke-width="4" stroke-linecap="round"/>
<path fill-rule="evenodd" clip-rule="evenodd" d="M130 48.8887H155.833C158.472 48.8887 160.556 51.1109 160.556 53.6109V74.3053C160.556 76.9442 158.333 79.0276 155.833 79.0276H153.333L152.778 86.3887C152.778 86.8053 152.222 87.0831 151.945 86.8053L144.028 79.3053H130C127.361 79.3053 125.278 77.0831 125.278 74.5831V53.7498C125.278 51.1109 127.361 48.8887 130 48.8887V48.8887Z" stroke="#002859" stroke-width="4"/>
<path opacity="0.7" d="M111.805 228.194C113.646 228.194 115.138 226.702 115.138 224.861C115.138 223.02 113.646 221.527 111.805 221.527C109.964 221.527 108.472 223.02 108.472 224.861C108.472 226.702 109.964 228.194 111.805 228.194Z" fill="#002859"/>
<path d="M139.305 132.082C147.589 132.082 154.305 125.366 154.305 117.082C154.305 108.798 147.589 102.082 139.305 102.082C131.021 102.082 124.305 108.798 124.305 117.082C124.305 125.366 131.021 132.082 139.305 132.082Z" fill="white" stroke="#002859" stroke-width="4"/>
<path d="M158.333 158.055C161.111 158.055 163.194 155.555 162.639 152.916C160.278 142.221 150.694 134.305 139.305 134.305C127.916 134.305 118.472 142.221 115.972 152.916C115.416 155.555 117.5 158.055 120.278 158.055H158.333Z" fill="white" stroke="#002859" stroke-width="4"/>
<path d="M193.194 97.0833C198.257 97.0833 202.361 92.9793 202.361 87.9167C202.361 82.8541 198.257 78.75 193.194 78.75C188.131 78.75 184.027 82.8541 184.027 87.9167C184.027 92.9793 188.131 97.0833 193.194 97.0833Z" fill="white" stroke="#002859" stroke-width="4"/>
<path d="M204.861 113.056C206.528 113.056 207.778 111.528 207.5 109.862C206.111 103.334 200.278 98.4727 193.194 98.4727C186.111 98.4727 180.416 103.334 178.889 109.862C178.472 111.528 179.861 113.056 181.528 113.056H204.861Z" fill="white" stroke="#002859" stroke-width="4"/>
<path d="M100.972 187.638C105.728 187.638 109.583 183.783 109.583 179.027C109.583 174.271 105.728 170.416 100.972 170.416C96.2162 170.416 92.3608 174.271 92.3608 179.027C92.3608 183.783 96.2162 187.638 100.972 187.638Z" fill="white" stroke="#002859" stroke-width="4"/>
<path d="M112.083 202.639C113.611 202.639 114.861 201.25 114.583 199.583C113.194 193.472 107.778 188.75 101.111 188.75C94.5832 188.75 89.0276 193.333 87.6387 199.583C87.361 201.111 88.4721 202.639 90.1387 202.639H112.083Z" fill="white" stroke="#002859" stroke-width="4"/>
<path d="M76.8053 109.999C81.1776 109.999 84.722 106.455 84.722 102.083C84.722 97.7104 81.1776 94.166 76.8053 94.166C72.4331 94.166 68.8887 97.7104 68.8887 102.083C68.8887 106.455 72.4331 109.999 76.8053 109.999Z" fill="white" stroke="#002859" stroke-width="4"/>
<path d="M86.6664 123.471C88.0553 123.471 89.1664 122.221 88.8887 120.693C87.6387 115.137 82.6387 110.971 76.6664 110.971C70.6942 110.971 65.6942 115.137 64.4442 120.693C64.1664 122.082 65.2776 123.471 66.6664 123.471H86.6664Z" fill="white" stroke="#002859" stroke-width="4"/>
<path d="M199.028 160.693C203.4 160.693 206.944 157.148 206.944 152.776C206.944 148.404 203.4 144.859 199.028 144.859C194.655 144.859 191.111 148.404 191.111 152.776C191.111 157.148 194.655 160.693 199.028 160.693Z" fill="white" stroke="#002859" stroke-width="4"/>
<path d="M209.027 174.164C210.416 174.164 211.527 172.914 211.249 171.386C209.999 165.831 204.999 161.664 199.027 161.664C193.055 161.664 188.055 165.831 186.805 171.386C186.527 172.775 187.638 174.164 189.027 174.164H209.027Z" fill="white" stroke="#002859" stroke-width="4"/>
<path d="M55.2773 168.75C58.7291 168.75 61.5273 165.952 61.5273 162.5C61.5273 159.048 58.7291 156.25 55.2773 156.25C51.8256 156.25 49.0273 159.048 49.0273 162.5C49.0273 165.952 51.8256 168.75 55.2773 168.75Z" fill="#3485D6" stroke="#002859" stroke-width="4" stroke-linecap="round"/>
<path d="M157.5 208.611C162.639 208.611 166.805 204.445 166.805 199.306C166.805 194.166 162.639 190 157.5 190C152.361 190 148.194 194.166 148.194 199.306C148.194 204.445 152.361 208.611 157.5 208.611Z" fill="#3485D6" stroke="#002859" stroke-width="4" stroke-linecap="round"/>
<path d="M225.694 133.611C228.379 133.611 230.555 131.435 230.555 128.75C230.555 126.065 228.379 123.889 225.694 123.889C223.009 123.889 220.833 126.065 220.833 128.75C220.833 131.435 223.009 133.611 225.694 133.611Z" fill="white" stroke="#002859" stroke-width="4" stroke-linecap="round"/>
</svg>
