<svg width="250" height="250" viewBox="0 0 250 250" fill="none" xmlns="http://www.w3.org/2000/svg">
<path opacity="0.2" d="M136.806 247.22C198.554 247.22 248.611 197.163 248.611 135.415C248.611 73.6664 198.554 23.6094 136.806 23.6094C75.0571 23.6094 25 73.6664 25 135.415C25 197.163 75.0571 247.22 136.806 247.22Z" fill="#002859"/>
<path opacity="0.7" d="M8.33312 124.998C12.1684 124.998 15.2776 121.889 15.2776 118.054C15.2776 114.219 12.1684 111.109 8.33312 111.109C4.49781 111.109 1.38867 114.219 1.38867 118.054C1.38867 121.889 4.49781 124.998 8.33312 124.998Z" fill="#002859"/>
<path opacity="0.7" d="M230.833 218.471C231.984 218.471 232.917 217.539 232.917 216.388C232.917 215.237 231.984 214.305 230.833 214.305C229.683 214.305 228.75 215.237 228.75 216.388C228.75 217.539 229.683 218.471 230.833 218.471Z" fill="#002859"/>
<path opacity="0.7" d="M12.7776 192.082C14.235 192.082 15.4165 190.901 15.4165 189.444C15.4165 187.986 14.235 186.805 12.7776 186.805C11.3201 186.805 10.1387 187.986 10.1387 189.444C10.1387 190.901 11.3201 192.082 12.7776 192.082Z" fill="#002859"/>
<path opacity="0.7" d="M47.0832 230.416C47.8503 230.416 48.4721 229.795 48.4721 229.028C48.4721 228.261 47.8503 227.639 47.0832 227.639C46.3162 227.639 45.6943 228.261 45.6943 229.028C45.6943 229.795 46.3162 230.416 47.0832 230.416Z" fill="#002859"/>
<path opacity="0.7" d="M196.111 27.6378C198.029 27.6378 199.583 26.0832 199.583 24.1656C199.583 22.2479 198.029 20.6934 196.111 20.6934C194.193 20.6934 192.639 22.2479 192.639 24.1656C192.639 26.0832 194.193 27.6378 196.111 27.6378Z" fill="#002859"/>
<path opacity="0.7" d="M20.5551 30.5556C22.0892 30.5556 23.3329 29.3119 23.3329 27.7778C23.3329 26.2437 22.0892 25 20.5551 25C19.021 25 17.7773 26.2437 17.7773 27.7778C17.7773 29.3119 19.021 30.5556 20.5551 30.5556Z" fill="#002859"/>
<path opacity="0.7" d="M88.0557 5.83247L90.139 3.74913C90.4168 3.47135 90.5557 3.19358 90.5557 2.77691C90.5557 2.36024 90.4168 2.08247 90.139 1.80469C89.7223 1.38802 88.7501 1.38802 88.3334 1.80469L86.1112 4.02691L84.0279 1.94358C83.7501 1.6658 83.4723 1.52691 83.0557 1.52691C82.639 1.52691 82.3612 1.6658 82.0834 1.94358C81.9445 2.08247 81.8057 2.36024 81.8057 2.77691C81.8057 3.19358 81.9446 3.47135 82.2223 3.74913L84.3057 5.83247L82.2223 7.9158C81.9446 8.19358 81.8057 8.47135 81.8057 8.88802C81.8057 9.30469 81.9446 9.58247 82.2223 9.86024C82.5001 10.138 82.7779 10.2769 83.1946 10.2769C83.4723 10.2769 83.889 9.99913 84.1668 9.86024L86.1112 7.63802L88.1946 9.72135C88.4723 9.99913 88.7501 10.138 89.1668 10.138C89.5834 10.138 89.8612 9.86024 90.139 9.72135C90.4168 9.44358 90.5557 9.1658 90.5557 8.74913C90.5557 8.33247 90.4168 8.05469 90.139 7.77691L88.0557 5.83247Z" fill="#002859"/>
<path opacity="0.36" d="M169.444 200.278H81.9436C74.3047 200.278 68.0547 194.028 68.0547 186.389V100.556C68.0547 98.8889 69.4436 97.5 71.1102 97.5H180.277C181.944 97.5 183.332 98.8889 183.332 100.556V186.389C183.332 194.167 177.082 200.278 169.444 200.278Z" fill="#1A354C"/>
<path d="M179.443 193.332H85.8324C79.8601 193.332 74.999 188.471 74.999 182.499V90.5547H190.277V182.499C190.277 188.61 185.416 193.332 179.443 193.332Z" fill="white" stroke="#002859" stroke-width="4"/>
<path d="M184.721 193.334H81.9435L74.999 183.611H190.277L184.721 193.334Z" fill="#3485D6"/>
<path fill-rule="evenodd" clip-rule="evenodd" d="M179.443 193.332H85.8324C79.8601 193.332 74.999 188.471 74.999 182.499V90.5547H190.277V182.499C190.277 188.61 185.416 193.332 179.443 193.332Z" stroke="#002859" stroke-width="4"/>
<path d="M189.305 97.5H66.8049C66.8049 97.5 66.666 97.5 66.666 97.3611V72.6389C66.666 72.6389 66.666 72.5 66.8049 72.5H189.305C192.916 72.5 195.833 75.4167 195.833 79.0278V90.9722C195.833 94.7222 192.916 97.5 189.305 97.5Z" fill="#3485D6"/>
<path d="M104.444 97.5C106.11 93.8889 107.222 90 107.222 85.6944C107.222 80.8333 105.972 76.3889 103.749 72.5H56.3882C55.2771 74.3056 54.4438 76.3889 53.8882 78.4722L52.916 85.6944C52.916 90 53.8882 93.8889 55.6938 97.5H104.444Z" fill="white"/>
<path fill-rule="evenodd" clip-rule="evenodd" d="M189.305 97.5H66.8049C66.8049 97.5 66.666 97.5 66.666 97.3611V72.6389C66.666 72.6389 66.666 72.5 66.8049 72.5H189.305C192.916 72.5 195.833 75.4167 195.833 79.0278V90.9722C195.833 94.7222 192.916 97.5 189.305 97.5Z" stroke="#002859" stroke-width="4"/>
<path d="M172.777 87.638C170 87.638 167.777 85.4158 167.777 82.638V61.8047C167.777 59.0269 170 56.8047 172.777 56.8047C175.555 56.8047 177.777 59.0269 177.777 61.8047V82.638C177.777 85.4158 175.555 87.638 172.777 87.638Z" fill="white" stroke="#002859" stroke-width="4.202"/>
<path d="M219.444 77.0829H204.166M195.139 50.2773V65.5551V50.2773ZM212.5 59.0273L201.666 69.8607L212.5 59.0273Z" stroke="#002859" stroke-width="4" stroke-linecap="round"/>
<path d="M74.305 112.917C89.2627 112.917 101.388 100.791 101.388 85.8333C101.388 70.8756 89.2627 58.75 74.305 58.75C59.3473 58.75 47.2217 70.8756 47.2217 85.8333C47.2217 100.791 59.3473 112.917 74.305 112.917Z" fill="white"/>
<path d="M91.2489 64.582C94.9989 69.1654 97.2211 75.1376 97.2211 81.5265C97.2211 96.5265 85.1378 108.61 70.1378 108.61C63.7489 108.61 57.7767 106.388 53.1934 102.638C58.1934 108.749 65.8322 112.776 74.3045 112.776C89.3045 112.776 101.388 100.693 101.388 85.6931C101.388 77.3598 97.36 69.7209 91.2489 64.582Z" fill="#3485D6"/>
<path d="M48.1939 78.4724C51.3883 67.0835 61.805 58.6113 74.305 58.6113C89.305 58.6113 101.388 70.8335 101.388 85.8335C101.388 100.834 89.305 112.917 74.305 112.917C59.8606 112.917 48.055 101.667 47.2217 87.5002" stroke="#002859" stroke-width="4" stroke-linecap="round"/>
<path d="M154.166 110V175.278M108.333 110V175.278V110ZM84.7217 125.278H176.388H84.7217ZM84.7217 161.389H176.388H84.7217Z" stroke="#3485D6" stroke-width="4" stroke-linecap="round"/>
<path d="M59.7217 87.7782L67.3606 95.556L86.9439 75.9727" stroke="#002859" stroke-width="4" stroke-linecap="round"/>
<path d="M184.722 191.943L193.055 200.277" stroke="#002859" stroke-width="4"/>
<path d="M168.055 198.889C181.862 198.889 193.055 187.696 193.055 173.889C193.055 160.082 181.862 148.889 168.055 148.889C154.248 148.889 143.055 160.082 143.055 173.889C143.055 187.696 154.248 198.889 168.055 198.889Z" fill="white" stroke="#002859" stroke-width="4"/>
<path d="M168.055 192.778C154.999 192.778 144.166 182.639 143.194 169.861C143.194 170.556 143.055 171.25 143.055 171.945C143.055 185.695 154.305 196.945 168.055 196.945C181.805 196.945 193.055 185.695 193.055 171.945C193.055 171.25 193.055 170.556 192.916 169.861C191.805 182.778 181.11 192.778 168.055 192.778Z" fill="#3485D6"/>
<path d="M168.055 198.889C181.862 198.889 193.055 187.696 193.055 173.889C193.055 160.082 181.862 148.889 168.055 148.889C154.248 148.889 143.055 160.082 143.055 173.889C143.055 187.696 154.248 198.889 168.055 198.889Z" stroke="#002859" stroke-width="4"/>
<path d="M208.749 216.389C207.221 217.917 204.721 217.917 203.194 216.389L189.444 202.639C187.916 201.111 187.916 198.611 189.444 197.083C190.971 195.556 193.471 195.556 194.999 197.083L208.749 210.833C210.277 212.361 210.277 214.861 208.749 216.389Z" fill="#3485D6" stroke="#002859" stroke-width="1.873"/>
<path d="M191.11 196.666L209.027 214.583" stroke="white" stroke-width="1.873"/>
<path fill-rule="evenodd" clip-rule="evenodd" d="M208.749 216.389C207.221 217.917 204.721 217.917 203.194 216.389L189.444 202.639C187.916 201.111 187.916 198.611 189.444 197.083C190.971 195.556 193.471 195.556 194.999 197.083L208.749 210.833C210.277 212.361 210.277 214.861 208.749 216.389Z" stroke="#002859" stroke-width="4"/>
<path d="M157.499 162.221C160.277 159.721 164.027 158.193 168.055 158.193C168.888 158.193 169.721 158.193 170.555 158.332M182.638 167.777C183.471 169.721 183.888 171.804 183.888 173.888C183.888 175.693 183.61 177.499 183.055 179.166L182.638 167.777ZM177.221 161.11C177.638 161.388 178.055 161.804 178.471 162.082L177.221 161.11Z" stroke="#002859" stroke-width="3.832" stroke-linecap="round"/>
<path d="M168.314 111.139C169.501 109.079 169.655 106.943 168.658 106.368C167.662 105.794 165.891 106.998 164.704 109.059C163.516 111.119 163.362 113.255 164.359 113.829C165.356 114.404 167.126 113.199 168.314 111.139Z" fill="#3485D6"/>
<path d="M170.138 118.888C174.127 118.888 177.36 115.654 177.36 111.666C177.36 107.677 174.127 104.443 170.138 104.443C166.15 104.443 162.916 107.677 162.916 111.666C162.916 115.654 166.15 118.888 170.138 118.888Z" stroke="#002859" stroke-width="3"/>
<path d="M171.249 118.472C170.415 116.666 170.554 114.444 171.665 112.638C172.776 110.833 174.443 109.722 176.387 109.444M169.026 105.277C169.721 107.083 169.721 109.166 168.61 110.972C167.637 112.777 165.832 113.888 164.026 114.166L169.026 105.277Z" stroke="#002859" stroke-width="1.4"/>
<path d="M126.805 143.473C126.805 143.473 123.472 150 123.611 150C123.75 150 131.666 145.834 131.666 145.834L128.472 142.223L126.805 143.473Z" fill="#3485D6"/>
<path fill-rule="evenodd" clip-rule="evenodd" d="M131.666 145.556L141.805 135.417C142.5 134.723 142.5 133.612 141.805 132.778L140.833 131.806C140.139 131.112 139.028 131.112 138.194 131.806L128.055 141.945C126.805 143.195 125 146.667 123.611 148.056L120.972 150.695C120.416 150.139 119.722 150.139 119.305 150.695C118.75 151.25 118.75 151.945 119.305 152.362L120.972 154.028C121.528 154.584 122.222 154.584 122.639 154.028C123.194 153.473 123.194 152.778 122.639 152.362C122.639 152.362 124.583 150.278 125.278 149.723C126.944 148.612 130.278 146.806 131.666 145.556V145.556Z" stroke="#002859" stroke-width="3"/>
<path d="M128.611 141.527L131.945 144.722" stroke="#002859" stroke-width="1.862"/>
<path d="M135.972 155.418C137.659 155.418 139.027 154.05 139.027 152.362C139.027 150.675 137.659 149.307 135.972 149.307C134.284 149.307 132.916 150.675 132.916 152.362C132.916 154.05 134.284 155.418 135.972 155.418Z" stroke="#002859" stroke-width="3"/>
<path d="M99.9999 138.471L88.1943 150.415M88.1943 138.471L99.9999 150.415L88.1943 138.471Z" stroke="#002859" stroke-width="3" stroke-linecap="round"/>
</svg>
