<svg width="250" height="250" viewBox="0 0 250 250" fill="none" xmlns="http://www.w3.org/2000/svg">
<path opacity="0.2" d="M136.806 247.22C198.554 247.22 248.611 197.163 248.611 135.415C248.611 73.6664 198.554 23.6094 136.806 23.6094C75.0571 23.6094 25 73.6664 25 135.415C25 197.163 75.0571 247.22 136.806 247.22Z" fill="#002859"/>
<path opacity="0.7" d="M8.33312 124.998C12.1684 124.998 15.2776 121.889 15.2776 118.054C15.2776 114.219 12.1684 111.109 8.33312 111.109C4.49781 111.109 1.38867 114.219 1.38867 118.054C1.38867 121.889 4.49781 124.998 8.33312 124.998Z" fill="#002859"/>
<path opacity="0.7" d="M230.833 218.471C231.984 218.471 232.917 217.539 232.917 216.388C232.917 215.237 231.984 214.305 230.833 214.305C229.683 214.305 228.75 215.237 228.75 216.388C228.75 217.539 229.683 218.471 230.833 218.471Z" fill="#002859"/>
<path opacity="0.7" d="M12.7776 192.082C14.235 192.082 15.4165 190.901 15.4165 189.444C15.4165 187.986 14.235 186.805 12.7776 186.805C11.3201 186.805 10.1387 187.986 10.1387 189.444C10.1387 190.901 11.3201 192.082 12.7776 192.082Z" fill="#002859"/>
<path opacity="0.7" d="M47.0832 230.416C47.8503 230.416 48.4721 229.795 48.4721 229.028C48.4721 228.261 47.8503 227.639 47.0832 227.639C46.3162 227.639 45.6943 228.261 45.6943 229.028C45.6943 229.795 46.3162 230.416 47.0832 230.416Z" fill="#002859"/>
<path opacity="0.7" d="M196.111 27.6378C198.029 27.6378 199.583 26.0832 199.583 24.1656C199.583 22.2479 198.029 20.6934 196.111 20.6934C194.193 20.6934 192.639 22.2479 192.639 24.1656C192.639 26.0832 194.193 27.6378 196.111 27.6378Z" fill="#002859"/>
<path opacity="0.7" d="M20.5551 30.5556C22.0892 30.5556 23.3329 29.3119 23.3329 27.7778C23.3329 26.2437 22.0892 25 20.5551 25C19.021 25 17.7773 26.2437 17.7773 27.7778C17.7773 29.3119 19.021 30.5556 20.5551 30.5556Z" fill="#002859"/>
<path opacity="0.7" d="M88.0557 5.83247L90.139 3.74913C90.4168 3.47135 90.5557 3.19358 90.5557 2.77691C90.5557 2.36024 90.4168 2.08247 90.139 1.80469C89.7223 1.38802 88.7501 1.38802 88.3334 1.80469L86.1112 4.02691L84.0279 1.94358C83.7501 1.6658 83.4723 1.52691 83.0557 1.52691C82.639 1.52691 82.3612 1.6658 82.0834 1.94358C81.9445 2.08247 81.8057 2.36024 81.8057 2.77691C81.8057 3.19358 81.9446 3.47135 82.2223 3.74913L84.3057 5.83247L82.2223 7.9158C81.9446 8.19358 81.8057 8.47135 81.8057 8.88802C81.8057 9.30469 81.9446 9.58247 82.2223 9.86024C82.5001 10.138 82.7779 10.2769 83.1946 10.2769C83.4723 10.2769 83.889 9.99913 84.1668 9.86024L86.1112 7.63802L88.1946 9.72135C88.4723 9.99913 88.7501 10.138 89.1668 10.138C89.5834 10.138 89.8612 9.86024 90.139 9.72135C90.4168 9.44358 90.5557 9.1658 90.5557 8.74913C90.5557 8.33247 90.4168 8.05469 90.139 7.77691L88.0557 5.83247Z" fill="#002859"/>
<g opacity="0.3">
<path opacity="0.3" d="M70.5557 93.472L73.4723 88.8887" stroke="#1A354C" stroke-width="3" stroke-linecap="round"/>
<path opacity="0.3" d="M80.1387 80.694C94.5831 64.9996 115.278 55.2773 138.333 55.2773C150.416 55.2773 161.805 57.9162 171.944 62.7773" stroke="#1A354C" stroke-width="3" stroke-linecap="round" stroke-dasharray="7.59 7.59"/>
<path opacity="0.3" d="M176.667 65.1387C178.195 65.972 179.723 66.9442 181.25 67.9165" stroke="#1A354C" stroke-width="3" stroke-linecap="round"/>
</g>
<g opacity="0.3">
<path opacity="0.3" d="M128.888 213.472C127.083 213.194 125.277 213.055 123.61 212.639" stroke="#1A354C" stroke-width="3" stroke-linecap="round"/>
<path opacity="0.3" d="M112.5 209.723C81.2498 199.028 58.8887 169.445 58.8887 134.584C58.8887 131.251 59.1664 127.778 59.5831 124.584" stroke="#1A354C" stroke-width="3" stroke-linecap="round" stroke-dasharray="8.22 8.22"/>
<path opacity="0.3" d="M60.5557 119.028C60.9723 117.222 61.389 115.556 61.8057 113.75" stroke="#1A354C" stroke-width="3" stroke-linecap="round"/>
</g>
<g opacity="0.3">
<path opacity="0.3" d="M199.999 84.7207C201.11 86.1096 202.221 87.4985 203.193 89.0263" stroke="#1A354C" stroke-width="3" stroke-linecap="round"/>
<path opacity="0.3" d="M209.166 98.748C214.583 109.442 217.639 121.665 217.639 134.581C217.639 168.054 196.944 196.665 167.639 208.331" stroke="#1A354C" stroke-width="3" stroke-linecap="round" stroke-dasharray="8.25 8.25"/>
<path opacity="0.3" d="M162.361 210.275C160.694 210.831 158.888 211.248 157.222 211.664" stroke="#1A354C" stroke-width="3" stroke-linecap="round"/>
</g>
<path opacity="0.36" d="M190 83.6096C193.835 83.6096 196.945 80.5005 196.945 76.6651C196.945 72.8298 193.835 69.7207 190 69.7207C186.165 69.7207 183.056 72.8298 183.056 76.6651C183.056 80.5005 186.165 83.6096 190 83.6096Z" stroke="#1A354C" stroke-width="3" stroke-linecap="round"/>
<path opacity="0.36" d="M141.11 220.832C144.946 220.832 148.055 217.723 148.055 213.888C148.055 210.052 144.946 206.943 141.11 206.943C137.275 206.943 134.166 210.052 134.166 213.888C134.166 217.723 137.275 220.832 141.11 220.832Z" stroke="#1A354C" stroke-width="3" stroke-linecap="round"/>
<path d="M115.416 40.416L105.972 49.9993M105.972 40.416L115.416 49.9993L105.972 40.416Z" stroke="#002859" stroke-width="3" stroke-linecap="round"/>
<path d="M43.6103 168.471C46.3718 168.471 48.6103 166.232 48.6103 163.471C48.6103 160.709 46.3718 158.471 43.6103 158.471C40.8489 158.471 38.6104 160.709 38.6104 163.471C38.6104 166.232 40.8489 168.471 43.6103 168.471Z" fill="#3485D6" stroke="#002859" stroke-width="3" stroke-linecap="round"/>
<path opacity="0.36" d="M80.9716 162.639C80.9716 162.639 85.4161 170 84.8605 172.5C84.1661 175 79.4438 177.222 80.555 180.694C81.6661 184.166 75.2772 188.75 73.1938 190.416C70.9716 192.083 67.0827 194.722 67.7772 196.528C69.7216 202.778 86.3883 194.028 89.305 193.333C92.2216 192.778 96.2494 192.916 100.138 189.861C103.888 186.666 114.166 180.694 114.722 178.472C115.277 176.25 115.416 167.916 112.638 163.472C109.722 159.166 93.3327 157.639 90.8327 157.639C88.4716 157.778 83.7494 160.278 80.9716 162.639Z" fill="#002859"/>
<path d="M126.667 199.027C130.042 199.027 132.778 196.291 132.778 192.916C132.778 189.541 130.042 186.805 126.667 186.805C123.292 186.805 120.556 189.541 120.556 192.916C120.556 196.291 123.292 199.027 126.667 199.027Z" fill="white" stroke="#002859" stroke-width="4"/>
<path opacity="0.7" d="M115.694 186.805C117.075 186.805 118.194 185.685 118.194 184.305C118.194 182.924 117.075 181.805 115.694 181.805C114.314 181.805 113.194 182.924 113.194 184.305C113.194 185.685 114.314 186.805 115.694 186.805Z" fill="#002859"/>
<path d="M219.028 101.944C219.028 98.0553 219.861 90.6941 218.055 89.8608C216.25 89.0275 215.416 91.6664 213.055 93.7497C210.694 95.833 209.583 92.3608 206.805 94.583C205.278 95.6941 206.111 98.4719 204.305 100.833C203.472 101.944 201.111 100.139 200.555 101.527C199.166 104.583 202.5 106.25 201.111 107.5C200.972 107.639 196.25 113.889 190.972 114.166C188.472 114.305 185.833 111.111 185.416 108.75C185.278 108.055 185.278 105.139 185.278 104.444C185.139 100.416 184.166 99.583 182.778 99.0275C182.083 98.7497 181.528 98.8886 180.833 99.1664C180 99.3053 179.444 99.9997 179.444 100.694C179.305 102.5 179.305 104.305 179.305 105.139C179.305 107.361 177.083 111.527 173.055 111.25C168.194 110.972 168.611 86.1108 167.222 84.8608C163.194 80.5552 82.4998 83.333 78.1943 84.583C73.7498 85.833 71.9443 97.7775 71.2498 100.139C70.5554 102.5 67.9165 105.277 64.0276 107.639C63.0554 108.194 62.4998 108.75 61.9443 109.166C61.2498 109.722 60.1387 111.25 60.8331 115.416C61.8054 121.527 63.472 124.166 63.3331 126.389C63.1943 128.611 64.8609 131.666 68.0554 136.111C71.2498 140.694 76.8054 149.583 80.2776 151.111C82.3609 152.083 86.8054 150.833 88.1943 151.389C89.5831 152.083 94.3054 160.833 97.7776 161.527C101.25 162.222 113.333 158.889 115.555 160.972C117.916 163.194 119.722 168.75 122.5 169.583C125.139 170.416 130.972 168.472 132.222 169.722C133.611 171.111 140.972 181.389 145.972 181.111C150.972 180.833 153.889 168.889 157.083 168.333C160.278 167.777 169.166 170.833 173.333 168.889C175.833 167.777 177.083 163.055 180 162.916C182.916 162.777 185.833 162.5 187.083 163.194C188.333 163.889 198.75 185.277 204.583 184.583C210.416 183.889 208.333 176.666 207.222 173.333C206.111 170 200.278 161.666 200.694 155.972C200.972 150.277 200 144.861 203.194 140.416C206.389 135.972 211.666 133.889 211.666 129.444C211.666 125 207.5 119.305 209.305 116.25C211.111 113.889 218.889 106.111 219.028 101.944Z" fill="white"/>
<path opacity="0.36" d="M214.999 105.971C214.999 102.082 215.833 94.7212 214.027 93.8879C212.222 93.0546 211.388 95.6935 209.027 97.7768C206.666 99.8601 205.555 96.3879 202.777 98.6101C201.249 99.7212 202.083 102.499 200.277 104.86C199.444 105.971 200.138 106.805 199.722 108.193C198.333 111.249 198.472 110.277 197.083 111.527C196.944 111.666 192.222 117.916 186.944 118.193C184.444 118.332 181.805 115.138 181.388 112.777C181.249 112.082 181.249 109.166 181.249 108.471C181.111 104.443 180.138 103.61 178.749 103.055C178.055 102.777 178.611 101.11 177.916 101.388C177.083 101.527 177.916 106.943 177.916 107.638C177.777 109.443 176.805 109.582 176.805 110.416C176.805 112.638 172.916 115.555 168.888 115.277C164.027 114.999 165.138 93.0546 163.055 88.8879C160.416 83.6101 78.3328 87.3601 74.0273 88.6101C69.5828 89.8601 67.7773 101.805 67.0828 104.166C66.3884 106.527 63.7495 109.305 59.8606 111.666C58.8884 112.221 58.3328 112.777 57.7773 113.193C57.0828 113.749 55.9717 115.277 56.6662 119.443C57.6384 125.555 59.305 128.193 59.1661 130.416C59.0273 132.638 60.555 136.11 63.7495 140.693C66.9439 145.277 72.6384 153.749 75.9717 155.138C78.055 156.11 82.4995 154.86 83.8884 155.416C85.2773 156.11 89.9995 164.86 93.4717 165.555C96.9439 166.249 109.027 162.916 111.249 164.999C113.611 167.221 115.416 172.777 118.194 173.61C120.833 174.443 126.666 172.499 127.916 173.749C129.305 175.138 136.111 185.138 141.111 184.86C146.111 184.582 149.583 172.916 152.777 172.499C155.972 171.943 164.861 174.999 169.027 173.055C171.527 171.943 172.777 167.221 175.694 167.082C178.611 166.943 181.527 166.666 182.777 167.36C183.888 168.055 194.444 189.443 200.277 188.749C206.111 188.055 204.861 181.249 202.916 177.499C201.388 174.305 195.972 165.832 196.388 160.138C196.805 154.443 195.694 149.027 198.888 144.582C202.083 140.138 207.361 138.055 207.361 133.61C207.361 129.166 203.194 123.471 204.999 120.416C206.805 117.36 214.861 110.138 214.999 105.971Z" fill="#002859"/>
<path d="M219.028 101.944C219.028 98.055 219.861 90.6939 218.055 89.8606C216.25 89.0272 215.416 91.6661 213.055 93.7494C210.694 95.8328 209.583 92.3606 206.805 94.5828C205.278 95.6939 206.111 98.4717 204.305 100.833C203.472 101.944 201.111 100.138 200.555 101.527C199.166 104.583 202.5 106.249 201.111 107.499C200.972 107.638 196.25 113.888 190.972 114.166C188.472 114.305 185.833 111.111 185.416 108.749C185.278 108.055 185.278 105.138 185.278 104.444C185.139 100.416 184.166 99.5828 182.778 99.0272C182.083 98.7494 181.528 98.8883 180.833 99.1661C180 99.305 179.444 99.9994 179.444 100.694C179.305 102.499 179.305 104.305 179.305 105.138C179.305 107.361 177.083 111.527 173.055 111.249C168.194 110.972 169.305 89.0272 167.222 84.8606C164.583 79.5828 82.4998 83.3328 78.1943 84.5828C73.7498 85.8328 71.9443 97.7772 71.2498 100.138C70.5554 102.499 67.9165 105.277 64.0276 107.638C63.0554 108.194 62.4998 108.749 61.9443 109.166C61.2498 109.722 60.1387 111.249 60.8331 115.416C61.8054 121.527 63.472 124.166 63.3331 126.388C63.1943 128.611 64.722 132.083 67.9165 136.666C71.1109 141.249 76.8054 149.722 80.1387 151.111C82.222 152.083 86.6665 150.833 88.0554 151.388C89.4443 152.083 80.5554 187.777 84.0276 188.611C85.6943 188.888 102.778 161.388 106.25 160.833C110.278 160.277 114.166 159.861 115.416 160.972C117.778 163.194 119.583 168.749 122.361 169.583C125 170.416 130.833 168.472 132.083 169.722C133.472 171.111 140.278 181.111 145.278 180.833C150.278 180.555 153.75 168.888 156.944 168.472C160.139 167.916 169.028 170.972 173.194 169.027C175.694 167.916 176.944 163.194 179.861 163.055C182.778 162.916 185.694 162.638 186.944 163.333C188.194 164.027 198.611 185.416 204.444 184.722C210.278 184.027 209.028 177.222 207.083 173.472C205.555 170.277 200.139 161.805 200.555 156.111C200.833 150.416 199.861 144.999 203.055 140.555C206.25 136.111 211.528 134.027 211.528 129.583C211.528 125.138 207.361 119.444 209.166 116.388C211.111 113.888 218.889 106.111 219.028 101.944Z" fill="white"/>
<path d="M110 172.222C110 177.916 105 182.638 98.7497 182.638C96.1108 182.638 78.4719 191.805 76.5275 190.416C73.7497 188.472 79.0275 183.333 79.0275 179.999C79.0275 177.083 75.4164 166.11 79.5831 162.222C81.9442 160.138 91.5275 148.888 95.6942 149.444C99.1664 149.86 97.3608 161.805 98.7497 161.805C105 161.805 110 166.527 110 172.222Z" fill="white"/>
<path d="M71.1113 140L106.528 116.25M81.528 92.7773L106.25 117.083L115.695 164.305L81.528 92.7773Z" stroke="#3485D6" stroke-width="2.909"/>
<path d="M108.75 160.415L170.833 104.582" stroke="#3485D6" stroke-width="3.879"/>
<path d="M198.472 132.778L189.166 164.167M143.333 91.25L161.111 168.75L143.333 91.25ZM122.222 152.361L158.888 151.944L200.277 132.083L122.222 152.361ZM170.138 107.222L191.944 170.417L170.138 107.222Z" stroke="#3485D6" stroke-width="2.909"/>
<path fill-rule="evenodd" clip-rule="evenodd" d="M219.028 101.944C219.028 98.055 219.861 90.6939 218.055 89.8606C216.25 89.0272 215.416 91.6661 213.055 93.7494C210.694 95.8328 209.583 92.3606 206.805 94.5828C205.278 95.6939 206.111 98.4717 204.305 100.833C203.472 101.944 201.111 100.138 200.555 101.527C199.166 104.583 202.5 106.249 201.111 107.499C200.972 107.638 196.25 113.888 190.972 114.166C188.472 114.305 185.833 111.111 185.416 108.749C185.278 108.055 185.278 105.138 185.278 104.444C185.139 100.416 184.166 99.5828 182.778 99.0272C182.083 98.7494 181.528 98.8883 180.833 99.1661C180 99.305 179.444 99.9994 179.444 100.694C179.305 102.499 179.305 104.305 179.305 105.138C179.305 107.361 177.083 111.527 173.055 111.249C168.194 110.972 169.305 89.0272 167.222 84.8606C164.583 79.5828 82.4998 83.3328 78.1943 84.5828C73.7498 85.8328 71.9443 97.7772 71.2498 100.138C70.5554 102.499 67.9165 105.277 64.0276 107.638C63.0554 108.194 62.4998 108.749 61.9443 109.166C61.2498 109.722 60.1387 111.249 60.8331 115.416C61.8054 121.527 63.472 124.166 63.3331 126.388C63.1943 128.611 64.722 132.083 67.9165 136.666C71.1109 141.249 76.8054 149.722 80.1387 151.111C82.222 152.083 86.6665 150.833 88.0554 151.388C88.472 151.666 89.1665 152.638 90.1387 153.888C88.8887 154.583 87.7776 155.555 86.8054 156.388C86.8054 156.388 77.9165 165.416 77.3609 167.916C76.8054 170.416 78.1943 173.194 79.3054 176.666C80.4165 180.138 81.1109 182.499 79.0276 184.166C76.9443 185.833 72.7776 188.611 73.6109 190.277C74.4443 191.944 86.8054 188.055 89.8609 187.638C92.9165 187.222 95.972 186.111 99.8609 183.194C103.611 179.999 109.305 177.499 109.861 175.277C110.416 172.916 110.694 169.861 107.916 165.555C107.083 164.444 106.111 162.777 105 161.249C109.305 160.694 114.028 159.999 115.278 161.249C117.639 163.472 119.444 169.027 122.222 169.861C124.861 170.694 130.694 168.749 131.944 169.999C133.333 171.388 140.139 181.388 145.139 181.111C150.139 180.833 153.611 169.166 156.805 168.749C160 168.194 168.889 171.249 173.055 169.305C175.555 168.194 176.805 163.472 179.722 163.333C182.639 163.194 185.555 162.916 186.805 163.611C188.055 164.305 198.472 185.694 204.305 184.999C210.139 184.305 208.889 177.499 206.944 173.749C205.416 170.555 200 162.083 200.416 156.388C200.694 150.694 199.722 145.277 202.916 140.833C206.111 136.388 211.389 134.305 211.389 129.861C211.389 125.416 207.222 119.722 209.028 116.666C211.111 113.888 218.889 106.111 219.028 101.944V101.944Z" stroke="#002859" stroke-width="4" stroke-linejoin="round"/>
<path d="M90.6938 89.7218C90.6938 95.694 81.1105 103.75 79.0271 105.416C78.8882 105.555 78.4716 105.555 78.3327 105.416C76.2493 103.611 66.666 95.694 66.666 89.7218C66.666 83.0551 72.0827 77.7773 78.6105 77.7773C85.1382 77.7773 90.6938 83.194 90.6938 89.7218Z" fill="#3485D6" stroke="#002859" stroke-width="4"/>
<path d="M78.7489 93.6111C81.1268 93.6111 83.0545 91.6835 83.0545 89.3056C83.0545 86.9277 81.1268 85 78.7489 85C76.371 85 74.4434 86.9277 74.4434 89.3056C74.4434 91.6835 76.371 93.6111 78.7489 93.6111Z" fill="white"/>
<path d="M116.667 115.277C116.667 119.999 109.028 126.527 107.361 127.777C107.222 127.916 106.944 127.916 106.806 127.777C105.139 126.388 97.5 119.999 97.5 115.277C97.5 109.999 101.806 105.693 107.083 105.693C112.361 105.693 116.667 109.999 116.667 115.277Z" fill="#3485D6" stroke="#002859" stroke-width="4"/>
<path d="M107.084 118.333C109.001 118.333 110.556 116.779 110.556 114.861C110.556 112.943 109.001 111.389 107.084 111.389C105.166 111.389 103.611 112.943 103.611 114.861C103.611 116.779 105.166 118.333 107.084 118.333Z" fill="white"/>
<path d="M123.889 152.499C123.889 158.332 114.306 166.527 112.222 168.055C112.084 168.194 111.667 168.194 111.528 168.055C109.445 166.388 99.8613 158.332 99.8613 152.499C99.8613 145.971 105.278 140.555 111.806 140.555C118.472 140.555 123.889 145.971 123.889 152.499Z" fill="#3485D6" stroke="#002859" stroke-width="4"/>
<path d="M111.944 156.388C114.322 156.388 116.25 154.461 116.25 152.083C116.25 149.705 114.322 147.777 111.944 147.777C109.566 147.777 107.639 149.705 107.639 152.083C107.639 154.461 109.566 156.388 111.944 156.388Z" fill="white"/>
<path d="M150.833 83.1927C150.833 87.9149 143.194 94.4427 141.527 95.6927C141.388 95.8316 141.11 95.8316 140.972 95.6927C139.305 94.3038 131.666 87.9149 131.666 83.1927C131.666 77.9149 135.972 73.6094 141.249 73.6094C146.527 73.6094 150.833 77.9149 150.833 83.1927Z" fill="#3485D6" stroke="#002859" stroke-width="4"/>
<path d="M141.25 86.2491C143.167 86.2491 144.722 84.6946 144.722 82.7769C144.722 80.8593 143.167 79.3047 141.25 79.3047C139.332 79.3047 137.777 80.8593 137.777 82.7769C137.777 84.6946 139.332 86.2491 141.25 86.2491Z" fill="white"/>
<path d="M168.333 135.138C168.333 142.221 156.805 152.082 154.305 153.888C154.028 154.166 153.611 154.166 153.472 153.888C150.972 151.804 139.444 142.221 139.444 135.138C139.444 127.221 145.972 120.693 153.889 120.693C161.805 120.693 168.333 127.221 168.333 135.138Z" fill="#3485D6" stroke="#002859" stroke-width="4"/>
<path d="M153.888 139.86C156.803 139.86 159.166 137.497 159.166 134.582C159.166 131.668 156.803 129.305 153.888 129.305C150.973 129.305 148.61 131.668 148.61 134.582C148.61 137.497 150.973 139.86 153.888 139.86Z" fill="white"/>
<path d="M215.555 122.638C215.555 128.471 206.111 136.388 204.166 138.054C204.027 138.193 203.75 138.193 203.472 138.054C201.389 136.388 192.083 128.471 192.083 122.638C192.083 116.249 197.361 110.832 203.889 110.832C210.277 110.832 215.555 115.971 215.555 122.638Z" fill="#3485D6" stroke="#002859" stroke-width="4"/>
<path d="M203.889 126.248C206.266 126.248 208.194 124.32 208.194 121.942C208.194 119.564 206.266 117.637 203.889 117.637C201.511 117.637 199.583 119.564 199.583 121.942C199.583 124.32 201.511 126.248 203.889 126.248Z" fill="white"/>
<path d="M89.8603 169.721C89.8603 174.582 81.9437 181.387 80.1381 182.637C79.9992 182.776 79.7215 182.776 79.5826 182.637C77.9159 181.248 69.8604 174.582 69.8604 169.721C69.8604 164.304 74.3048 159.721 79.8603 159.721C85.4159 159.721 89.8603 164.304 89.8603 169.721Z" fill="#3485D6" stroke="#002859" stroke-width="4"/>
<path d="M79.8601 172.916C81.8545 172.916 83.4713 171.299 83.4713 169.304C83.4713 167.31 81.8545 165.693 79.8601 165.693C77.8658 165.693 76.249 167.31 76.249 169.304C76.249 171.299 77.8658 172.916 79.8601 172.916Z" fill="white"/>
</svg>
