<svg width="24" height="22" viewBox="0 0 24 22" fill="none" xmlns="http://www.w3.org/2000/svg">
<path d="M0.937162 4.73214C1.56224 4.10719 2.31622 3.79463 3.19962 3.79463H5.99964L6.63702 2.09473C6.79543 1.68646 7.08487 1.33432 7.50593 1.03835C7.92681 0.742511 8.35802 0.594482 8.79974 0.594482H15.1999C15.6416 0.594482 16.0729 0.742511 16.4938 1.03835C16.9146 1.33432 17.2041 1.68646 17.3625 2.09473L18 3.79463H20.8C21.6835 3.79463 22.4375 4.10719 23.0626 4.73214C23.6875 5.35714 24 6.11124 24 6.99464V18.1948C24 19.0782 23.6875 19.8324 23.0626 20.4572C22.4375 21.0823 21.6834 21.3949 20.8 21.3949H3.19993C2.31653 21.3949 1.5626 21.0823 0.937469 20.4572C0.312563 19.8324 0 19.0782 0 18.1948V6.99464C-0.000175476 6.11124 0.312387 5.35714 0.937162 4.73214ZM8.04366 16.5511C9.13949 17.647 10.4581 18.1951 11.9999 18.1951C13.5417 18.1951 14.8603 17.647 15.9562 16.5511C17.0521 15.4554 17.6 14.1365 17.6 12.595C17.6 11.0531 17.0519 9.73459 15.9562 8.63867C14.8604 7.54275 13.5417 6.99491 11.9999 6.99491C10.4582 6.99491 9.13949 7.54289 8.04366 8.63867C6.94779 9.73446 6.39985 11.0531 6.39985 12.595C6.39985 14.1365 6.94775 15.4553 8.04366 16.5511Z" fill="white"/>
<path d="M11.9975 9.00732C12.9892 9.00732 13.8372 9.35942 14.5414 10.0637C15.2456 10.7679 15.5977 11.6157 15.5977 12.6076C15.5977 13.5992 15.2456 14.4471 14.5414 15.1513C13.8372 15.8554 12.9893 16.2075 11.9975 16.2075C11.0059 16.2075 10.1579 15.8554 9.45371 15.1513C8.74951 14.4471 8.39737 13.5992 8.39737 12.6076C8.39737 11.6157 8.74951 10.7679 9.45371 10.0637C10.1579 9.35947 11.0059 9.00732 11.9975 9.00732Z" fill="white"/>
</svg>
