<svg width="12" height="16" viewBox="0 0 12 16" fill="none" xmlns="http://www.w3.org/2000/svg">
<path d="M6.01614 0.500001C5.10156 0.499371 4.20167 0.729972 3.4001 1.17037C2.59853 1.61077 1.92132 2.24667 1.4314 3.01896C0.941484 3.79126 0.654766 4.67488 0.5979 5.58769C0.541034 6.5005 0.715865 7.41287 1.10614 8.24C1.21364 8.46125 1.33614 8.675 1.47489 8.8775L5.83239 15.4025C5.85285 15.4322 5.88021 15.4564 5.91211 15.4731C5.94401 15.4899 5.97949 15.4986 6.01552 15.4986C6.05154 15.4986 6.08703 15.4899 6.11893 15.4731C6.15082 15.4564 6.17818 15.4322 6.19864 15.4025L10.5211 8.91875C10.681 8.68908 10.8231 8.44755 10.9461 8.19625C11.3273 7.36952 11.4942 6.46017 11.4316 5.55197C11.369 4.64377 11.0789 3.76593 10.5879 2.99931C10.097 2.23269 9.42102 1.60194 8.62228 1.16517C7.82355 0.728398 6.92775 0.499652 6.01739 0.500001H6.01614ZM6.01614 7.87875C5.75401 7.88537 5.4932 7.83945 5.24909 7.7437C5.00497 7.64795 4.78249 7.50432 4.59475 7.32125C4.40701 7.13819 4.25781 6.9194 4.15594 6.67778C4.05407 6.43616 4.00159 6.1766 4.00159 5.91438C4.00159 5.65216 4.05407 5.39259 4.15594 5.15097C4.25781 4.90935 4.40701 4.69056 4.59475 4.5075C4.78249 4.32444 5.00497 4.1808 5.24909 4.08505C5.4932 3.98931 5.75401 3.94339 6.01614 3.95C6.52855 3.96293 7.01562 4.17556 7.37346 4.54254C7.7313 4.90953 7.93159 5.40181 7.93159 5.91438C7.93159 6.42695 7.7313 6.91923 7.37346 7.28621C7.01562 7.65319 6.52855 7.86582 6.01614 7.87875Z" fill="#C6C8D1"/>
</svg>
