<svg width="18" height="18" viewBox="0 0 18 18" fill="none" xmlns="http://www.w3.org/2000/svg">
<path d="M3.77 7.82375C5.17645 10.5813 7.41872 12.8236 10.1763 14.23L12.315 12.0925C12.4417 11.964 12.6015 11.8732 12.7768 11.8302C12.952 11.7871 13.1357 11.7936 13.3075 11.8488C14.4272 12.2173 15.5987 12.4043 16.7775 12.4025C17.315 12.4025 17.75 12.8375 17.75 13.375V16.7775C17.75 17.315 17.315 17.75 16.7775 17.75C7.65 17.75 0.25 10.35 0.25 1.2225C0.25 0.964577 0.35246 0.717218 0.534839 0.534839C0.717218 0.35246 0.964577 0.25 1.2225 0.25H4.625C5.1625 0.25 5.5975 0.685 5.5975 1.2225C5.5975 2.4375 5.79125 3.60375 6.15125 4.6925C6.20659 4.86418 6.21322 5.04784 6.17041 5.22306C6.1276 5.39828 6.03702 5.55819 5.90875 5.685L3.77 7.8225V7.82375Z" fill="#C6C8D1"/>
</svg>
