<svg width="22" height="22" viewBox="0 0 22 22" fill="none" xmlns="http://www.w3.org/2000/svg">
<mask id="mask0" mask-type="alpha" maskUnits="userSpaceOnUse" x="0" y="0" width="22" height="22">
<path d="M0.00292969 0H21.9999V22H0.00292969V0Z" fill="white"/>
</mask>
<g mask="url(#mask0)">
<path fill-rule="evenodd" clip-rule="evenodd" d="M11 20.69C5.65704 20.69 1.31004 16.343 1.31004 11C1.31004 5.65704 5.65704 1.31004 11 1.31004C16.343 1.31004 20.69 5.65704 20.69 11C20.69 16.343 16.343 20.69 11 20.69ZM18.778 3.22204C17.759 2.19738 16.5469 1.38501 15.2118 0.831958C13.8767 0.278901 12.4451 -0.00386033 11 3.98021e-05C8.06204 3.98021e-05 5.30004 1.14404 3.22204 3.22204C2.19738 4.24107 1.38501 5.45321 0.831958 6.78831C0.278901 8.1234 -0.00386033 9.55493 3.98021e-05 11C3.98021e-05 13.938 1.14404 16.7 3.22204 18.778C4.24107 19.8027 5.45321 20.6151 6.78831 21.1681C8.1234 21.7212 9.55493 22.0039 11 22C13.938 22 16.7 20.856 18.778 18.778C19.8027 17.759 20.6151 16.5469 21.1681 15.2118C21.7212 13.8767 22.0039 12.4451 22 11C22 8.06204 20.856 5.30004 18.778 3.22204Z" fill="#757D8C"/>
</g>
<path fill-rule="evenodd" clip-rule="evenodd" d="M5.65683 9.02094C5.92721 8.75091 6.29371 8.59924 6.67583 8.59924C7.05796 8.59924 7.42446 8.75091 7.69483 9.02094C7.7555 9.08181 7.82758 9.1301 7.90695 9.16305C7.98631 9.196 8.0714 9.21296 8.15733 9.21296C8.24327 9.21296 8.32836 9.196 8.40772 9.16305C8.48709 9.1301 8.55917 9.08181 8.61983 9.02094C8.74258 8.89812 8.81152 8.73158 8.81152 8.55794C8.81152 8.3843 8.74258 8.21777 8.61983 8.09494C8.10372 7.57998 7.40442 7.29077 6.67533 7.29077C5.94625 7.29077 5.24695 7.57998 4.73083 8.09494C4.66743 8.15515 4.61671 8.22745 4.58169 8.30757C4.54667 8.38769 4.52804 8.47402 4.52691 8.56145C4.52578 8.64889 4.54217 8.73566 4.57511 8.81666C4.60805 8.89766 4.65687 8.97125 4.7187 9.03308C4.78053 9.09491 4.85412 9.14373 4.93512 9.17667C5.01612 9.20961 5.10289 9.226 5.19033 9.22487C5.27776 9.22374 5.36408 9.20511 5.44421 9.17009C5.52433 9.13506 5.59662 9.08435 5.65683 9.02094ZM14.3048 9.02094C14.5752 8.75091 14.9417 8.59924 15.3238 8.59924C15.706 8.59924 16.0725 8.75091 16.3428 9.02094C16.4035 9.08181 16.4756 9.1301 16.5549 9.16305C16.6343 9.196 16.7194 9.21296 16.8053 9.21296C16.8913 9.21296 16.9764 9.196 17.0557 9.16305C17.1351 9.1301 17.2072 9.08181 17.2678 9.02094C17.3906 8.89812 17.4595 8.73158 17.4595 8.55794C17.4595 8.3843 17.3906 8.21777 17.2678 8.09494C16.7517 7.57998 16.0524 7.29077 15.3233 7.29077C14.5943 7.29077 13.8949 7.57998 13.3788 8.09494C13.3154 8.15515 13.2647 8.22745 13.2297 8.30757C13.1947 8.38769 13.176 8.47402 13.1749 8.56145C13.1738 8.64889 13.1902 8.73566 13.2231 8.81666C13.256 8.89766 13.3049 8.97125 13.3667 9.03308C13.4285 9.09491 13.5021 9.14373 13.5831 9.17667C13.6641 9.20961 13.7509 9.226 13.8383 9.22487C13.9258 9.22374 14.0121 9.20511 14.0922 9.17009C14.1723 9.13506 14.2446 9.08435 14.3048 9.02094ZM10.9998 17.2859C9.74743 17.2846 8.53827 16.8277 7.598 16.0004C6.65773 15.1731 6.05057 14.032 5.88983 12.7899H16.1098C15.9491 14.032 15.3419 15.1731 14.4017 16.0004C13.4614 16.8277 12.2522 17.2846 10.9998 17.2859ZM16.8058 11.4799H5.19383C5.02029 11.4802 4.85395 11.5493 4.73133 11.6721C4.60871 11.7949 4.53983 11.9614 4.53983 12.1349C4.54195 13.8476 5.22324 15.4895 6.43426 16.7005C7.64529 17.9115 9.28719 18.5928 10.9998 18.5949C12.7125 18.5928 14.3544 17.9115 15.5654 16.7005C16.7764 15.4895 17.4577 13.8476 17.4598 12.1349C17.4598 11.9614 17.391 11.7949 17.2683 11.6721C17.1457 11.5493 16.9794 11.4802 16.8058 11.4799Z" fill="#757D8C"/>
</svg>
