<svg width="13" height="16" viewBox="0 0 13 16" fill="none" xmlns="http://www.w3.org/2000/svg">
<path d="M10.7219 2.5045H8.54265C8.43394 1.56272 7.63192 0.828735 6.66057 0.828735C5.68925 0.828735 4.88734 1.56269 4.77864 2.5045H2.59931C1.7174 2.5045 1 3.22144 1 4.1025V4.1845C1 4.8578 1.41963 5.43409 2.01076 5.66891V13.2178C2.01076 14.0989 2.72824 14.8158 3.6101 14.8158H9.7111C10.593 14.8158 11.3104 14.0988 11.3104 13.2178V5.66894C11.9015 5.43409 12.3212 4.8578 12.3212 4.18453V4.10253C12.3212 3.22144 11.6037 2.5045 10.7219 2.5045ZM6.66057 1.58658C7.21302 1.58658 7.67414 1.98219 7.77618 2.5045H5.54516C5.64717 1.98216 6.10832 1.58658 6.66057 1.58658ZM10.5519 13.2178C10.5519 13.681 10.1746 14.058 9.71107 14.058H3.61007C3.14653 14.058 2.76928 13.681 2.76928 13.2178V5.7825H10.5519V13.2178ZM11.5626 4.1845C11.5626 4.64775 11.1854 5.02468 10.7218 5.02468H2.59931C2.13578 5.02468 1.75852 4.64775 1.75852 4.1845V4.1025C1.75852 3.63926 2.13578 3.26232 2.59931 3.26232H10.7219C11.1854 3.26232 11.5626 3.63926 11.5626 4.1025V4.1845H11.5626Z" fill="#CD1531" stroke="#CD1531" stroke-width="0.5"/>
</svg>
