<svg width="17" height="17" viewBox="0 0 17 17" fill="none" xmlns="http://www.w3.org/2000/svg">
<path d="M10.2176 8.23777L16.6447 2.00883C17.1184 1.54907 17.1184 0.804581 16.6447 0.344821C16.1696 -0.11494 15.4009 -0.11494 14.9272 0.344821L8.5 6.5733L2.07285 0.344821C1.59794 -0.11494 0.830427 -0.11494 0.355278 0.344821C-0.118426 0.804581 -0.118426 1.54907 0.355278 2.00883L6.78243 8.23777L0.355278 14.4665C-0.118426 14.9255 -0.118426 15.6705 0.355278 16.131C0.593455 16.3604 0.903638 16.4754 1.21406 16.4754C1.52545 16.4754 1.83587 16.3606 2.07261 16.131L8.49976 9.90248L14.9269 16.131C15.1636 16.3604 15.4753 16.4754 15.7855 16.4754C16.0959 16.4754 16.4061 16.3606 16.6442 16.131C17.1179 15.6705 17.1179 14.9255 16.6442 14.4665L10.2176 8.23777Z" fill="#002859"/>
</svg>
