<svg width="50" height="62" viewBox="0 0 50 62" fill="none" xmlns="http://www.w3.org/2000/svg">
<path fill-rule="evenodd" clip-rule="evenodd" d="M48.077 10.5043C44.4025 5.49297 39.6294 1.87189 34.3224 0.0695648C34.2162 0.0542355 34.1108 0.0310044 34.0069 0L32.6924 1.60535L44.0589 15.3846L48.077 10.5043Z" fill="white"/>
<path fill-rule="evenodd" clip-rule="evenodd" d="M14.8583 15.3992C15.1695 15.3995 15.4705 15.5113 15.708 15.7148C15.9454 15.9183 16.1039 16.2003 16.1554 16.5108V16.6284C16.1906 16.9498 16.2456 17.2687 16.32 17.5833C16.9491 21.0287 18.7534 24.1414 21.4183 26.3787C24.0833 28.616 27.4399 29.8359 30.9027 29.8258C31.0737 29.8258 31.243 29.8599 31.401 29.9261C31.5589 29.9923 31.7024 30.0893 31.8233 30.2116C31.9442 30.334 32.0401 30.4792 32.1056 30.639C32.171 30.7988 32.2047 30.9701 32.2047 31.1431C32.2047 31.3161 32.171 31.4874 32.1056 31.6472C32.0401 31.807 31.9442 31.9522 31.8233 32.0746C31.7024 32.1969 31.5589 32.2939 31.401 32.3601C31.243 32.4263 31.0737 32.4604 30.9027 32.4604H26.1838C25.841 32.4604 25.5124 32.5982 25.27 32.8434C25.0277 33.0886 24.8915 33.4211 24.8915 33.7679C24.8915 34.1147 25.0277 34.4472 25.27 34.6924C25.5124 34.9376 25.841 35.0754 26.1838 35.0754H31.5077C31.6793 35.0748 31.8494 35.1083 32.0082 35.1742C32.167 35.24 32.3114 35.3369 32.4332 35.4592C32.555 35.5815 32.6518 35.7269 32.718 35.8871C32.7843 36.0473 32.8187 36.2191 32.8193 36.3927C32.8383 36.5553 32.8234 36.7201 32.7757 36.8766C32.728 37.033 32.6485 37.1777 32.5423 37.3012C32.4362 37.4248 32.3056 37.5245 32.1592 37.5941C32.0127 37.6636 31.8534 37.7014 31.6916 37.7051H27.96C27.6147 37.7051 27.2836 37.8439 27.0394 38.0909C26.7953 38.338 26.6581 38.673 26.6581 39.0224C26.6581 39.3718 26.7953 39.7068 27.0394 39.9539C27.2836 40.2009 27.6147 40.3397 27.96 40.3397H32.1127C32.2847 40.3377 32.4553 40.3704 32.6147 40.4358C32.774 40.5012 32.919 40.598 33.041 40.7206C33.1631 40.8431 33.2598 40.9891 33.3256 41.1498C33.3914 41.3106 33.425 41.483 33.4243 41.657C33.4218 42.0072 33.2825 42.3423 33.0368 42.5891C32.7911 42.8358 32.4589 42.9743 32.1127 42.9743H29.9396C29.5968 42.9743 29.2682 43.112 29.0258 43.3572C28.7835 43.6024 28.6473 43.935 28.6473 44.2818C28.6473 44.6285 28.7835 44.9611 29.0258 45.2063C29.2682 45.4515 29.5968 45.5893 29.9396 45.5893H33.8599C34.4831 45.579 35.0851 45.8184 35.5346 46.2553C37.1093 47.7192 39.1053 48.6355 41.2312 48.8703L44.9337 49.36C49.8511 49.9917 48.2394 53.2433 45.2532 54.541C43.1133 55.4207 40.8148 55.8361 38.5063 55.7604C34.4214 55.6918 30.0219 54.2913 26.8904 51.1768C19.3595 43.5668 21.4213 35.2125 18.3963 29.9237C16.4603 26.5938 13.8952 25.5752 12.1044 24.0914C10.8058 23.0117 9.9291 21.4998 9.63117 19.8261C9.59011 19.5447 9.62879 19.2573 9.74274 18.9972C9.85668 18.7372 10.0412 18.5152 10.2749 18.357L13.4305 16.1142C13.8129 15.8497 14.3985 15.3845 14.8583 15.3845V15.3992Z" fill="white"/>
<path fill-rule="evenodd" clip-rule="evenodd" d="M0.155343 26.9231C2.50841 30.8953 7.68324 29.9767 12.2348 34.6391C15.8827 38.3581 18.7673 47.3601 24.7684 53.507C28.3004 57.087 33.3061 58.8794 38.2297 58.9688C40.9229 59.0469 43.6019 58.5393 46.0909 57.4792C47.525 56.8667 48.7682 55.8621 49.6858 54.5746C49.7043 54.5396 49.735 54.513 49.7716 54.5001C49.8083 54.4872 49.8484 54.489 49.8839 54.505C49.9187 54.516 49.9489 54.5385 49.9699 54.5691C49.9909 54.5996 50.0014 54.6365 49.9998 54.6739C49.9998 54.7434 49.9998 54.8278 49.9709 54.9122C49.1736 58.507 43.936 60.5676 40.7325 61.1932C37.5108 61.7975 34.1955 61.6066 31.0596 60.6363C27.9237 59.666 25.057 57.9441 22.6955 55.6123L7.89583 40.5279C4.36381 36.9281 -0.980121 31.1833 0.155343 26.9231Z" fill="#CC0C31"/>
<path fill-rule="evenodd" clip-rule="evenodd" d="M3.46288 26.8717C2.07615 25.8332 1.1794 24.7173 2.76489 23.278C3.37771 22.7356 4.05434 22.2677 4.78028 21.8842C5.04838 21.7293 7.16084 20.6271 7.30413 21.4651C7.51471 22.6793 7.9604 23.8422 8.61691 24.8904C9.06375 25.6295 9.64511 26.2812 10.3318 26.8125C14.8202 30.4564 5.49214 28.393 3.46288 26.8581V26.8717Z" fill="#DDAE7D"/>
<path fill-rule="evenodd" clip-rule="evenodd" d="M11.9716 10.2664H25.7257C26.0538 10.2639 26.3676 10.1341 26.5987 9.90522C26.8299 9.67636 26.9595 9.36702 26.9595 9.04462C26.9557 8.72511 26.8242 8.41988 26.5934 8.19482C26.3626 7.96976 26.0509 7.84293 25.7257 7.84171H7.00283C6.84126 7.84296 6.68104 7.81277 6.53141 7.75287C6.38177 7.69298 6.24568 7.60457 6.13099 7.49275C6.01629 7.38092 5.92526 7.24789 5.86314 7.10133C5.80102 6.95477 5.76904 6.79758 5.76904 6.63881C5.77158 6.31892 5.90268 6.01297 6.13379 5.78765C6.3649 5.56233 6.67727 5.4359 7.00283 5.43591H28.1981L29.8256 3.84619L42.3075 15.979L31.0738 26.9231C30.9393 26.9231 30.8097 26.9231 30.6945 26.9231C27.865 26.932 25.1254 25.9473 22.9696 24.1464C20.8139 22.3456 19.3839 19.8472 18.9375 17.1017C18.8954 16.8494 18.9119 16.5911 18.9859 16.346C19.0599 16.1009 19.1894 15.8754 19.3647 15.6865C19.5329 15.492 19.7428 15.3366 19.9794 15.2314C20.2159 15.1262 20.4733 15.0738 20.733 15.078H20.7666C21.0926 15.078 21.4055 14.9517 21.6373 14.7266C21.8692 14.5014 22.0014 14.1954 22.0052 13.8751C22.0001 13.5552 21.8676 13.2499 21.636 13.025C21.4044 12.8001 21.0922 12.6734 20.7666 12.6722H11.9716C11.6435 12.6747 11.3276 12.5497 11.0929 12.3244C10.8582 12.099 10.7237 11.7917 10.7186 11.4693C10.7192 11.3103 10.7518 11.153 10.8145 11.0064C10.8771 10.8598 10.9686 10.7268 11.0837 10.6151C11.1987 10.5033 11.3351 10.415 11.485 10.3551C11.635 10.2953 11.7954 10.2651 11.9572 10.2664H11.9716Z" fill="#DDAE7D"/>
</svg>
